<svg width="91" height="36" viewBox="0 0 91 36" fill="none" xmlns="http://www.w3.org/2000/svg">
<path d="M46.6082 27.1643V19.2732H69.4784C83.5049 20.7421 94.4908 13.3971 89.3132 27.6878L86.6492 35.0401L66.6287 35.0478L46.6082 35.0554V27.1643ZM55.9091 29.09C56.4927 28.5355 56.6077 27.6138 56.1318 27.305C55.9607 27.194 55.9036 26.7343 56.0023 26.2624C56.244 25.1072 55.5443 24.4327 54.1043 24.4327H52.9685V27.0125V29.5923H54.1745C54.8909 29.5923 55.595 29.3884 55.9091 29.09ZM53.6513 28.53C53.3982 27.8377 53.7524 27.1643 54.3696 27.1643C55.2041 27.1643 55.7338 27.9578 55.2814 28.53C55.0834 28.7804 54.6731 28.9853 54.3696 28.9853C54.0661 28.9853 53.7428 28.7804 53.6513 28.53ZM53.5467 25.7985C53.5467 25.1058 53.6526 25.0122 54.3418 25.0955C54.9136 25.1645 55.1368 25.3619 55.1368 25.7985C55.1368 26.2351 54.9136 26.4325 54.3418 26.5016C53.6526 26.5848 53.5467 26.4912 53.5467 25.7985ZM59.907 29.1791C59.907 28.9018 59.6688 28.8138 59.1826 28.9113C58.4184 29.0647 57.4903 28.4969 57.759 28.0404C57.8461 27.8924 58.3737 27.7713 58.9314 27.7713C59.8586 27.7713 59.9376 27.7024 59.854 26.9673C59.7304 25.8812 59.0035 25.4367 57.9708 25.8158C57.2762 26.0708 57.1477 26.2998 57.0706 27.42C57.0211 28.1386 57.1346 28.9214 57.3228 29.1595C57.7725 29.7283 59.907 29.7446 59.907 29.1791V29.1791ZM57.9146 26.6979C58.1659 26.434 58.5695 26.3163 58.8439 26.4268C59.6432 26.7488 59.3929 27.1643 58.3996 27.1643C57.5637 27.1643 57.5149 27.1174 57.9146 26.6979ZM63.0325 28.6233C63.1043 27.9702 62.9427 27.7084 62.228 27.3205C61.2952 26.814 61.298 26.1585 62.2323 26.3151C62.529 26.3648 62.8102 26.2689 62.8572 26.102C62.9831 25.6546 61.3862 25.5431 60.9014 25.9655C60.2275 26.5527 60.4178 27.143 61.4967 27.8112C62.6488 28.5249 62.555 29.1058 61.3183 28.9153C60.7426 28.8266 60.4852 28.9168 60.4852 29.2071C60.4852 29.5136 60.8173 29.602 61.7139 29.5339C62.8064 29.4509 62.9526 29.35 63.0325 28.6233H63.0325ZM65.6891 29.2888C65.6891 29.1219 65.494 28.9853 65.2555 28.9853C64.9423 28.9853 64.8218 28.6481 64.8218 27.7713C64.8218 26.8945 64.9423 26.5573 65.2555 26.5573C65.494 26.5573 65.6891 26.3524 65.6891 26.102C65.6891 25.8516 65.494 25.6468 65.2555 25.6468C65.017 25.6468 64.8218 25.4419 64.8218 25.1915C64.8218 24.9411 64.6592 24.7373 64.4604 24.7386C63.9897 24.7417 63.2544 26.3629 63.6594 26.5046C63.8217 26.5614 63.9545 27.1883 63.9545 27.8977C63.9545 28.6072 64.0412 29.2787 64.1472 29.39C64.4499 29.7077 65.6891 29.6264 65.6891 29.2888ZM68.5224 29.2281C69.1091 28.6122 68.9132 28.0815 67.8578 27.4278C66.758 26.7466 66.7775 26.0939 67.889 26.3867C68.3906 26.5189 68.5802 26.4424 68.5802 26.1078C68.5802 25.6313 67.5878 25.4833 66.7246 25.831C65.9292 26.1514 66.1742 27.4016 67.1347 27.923C67.6117 28.182 68.002 28.5424 68.002 28.724C68.002 28.9182 67.6448 28.9992 67.1347 28.9206C66.5428 28.8294 66.2673 28.9148 66.2673 29.1896C66.2673 29.7023 68.0418 29.7326 68.5224 29.2281ZM72.2722 29.0479C72.3614 28.763 72.1881 28.7098 71.6403 28.8542C70.9049 29.048 70.0257 28.6034 70.0257 28.0376C70.0257 27.8911 70.5461 27.7713 71.1821 27.7713C72.1961 27.7713 72.3385 27.6853 72.3385 27.0732C72.3385 26.1449 71.8193 25.6468 70.8516 25.6468C69.4052 25.6468 68.5712 28.022 69.628 29.1314C70.1805 29.7115 72.0833 29.6514 72.2722 29.0479ZM70.3697 26.6731C70.627 26.403 70.9801 26.2745 71.1544 26.3875C71.7284 26.76 71.4849 27.1643 70.6865 27.1643C69.9635 27.1643 69.9386 27.1257 70.3697 26.6731ZM74.3623 29.3067C74.3623 29.1496 74.2322 28.9367 74.0732 28.8335C73.9142 28.7304 73.7841 27.6297 73.7841 26.3876C73.7841 24.5825 73.697 24.1292 73.3504 24.1292C73.0039 24.1292 72.9167 24.5817 72.9167 26.3807C72.9167 27.619 72.9957 28.8482 73.0922 29.1122C73.2789 29.6229 74.3623 29.7888 74.3623 29.3067ZM76.386 29.3067C76.386 29.1496 76.2559 28.9367 76.0969 28.8335C75.9379 28.7304 75.8078 27.6297 75.8078 26.3876C75.8078 24.5825 75.7208 24.1292 75.3741 24.1292C75.0234 24.1292 74.9405 24.6126 74.9405 26.6584C74.9405 28.0495 75.0272 29.2787 75.1332 29.39C75.4248 29.6961 76.386 29.6322 76.386 29.3067ZM79.8553 29.1791C79.8553 28.9018 79.6171 28.8138 79.1308 28.9113C78.3666 29.0647 77.4385 28.4969 77.7072 28.0404C77.7944 27.8924 78.3219 27.7713 78.8797 27.7713C79.8068 27.7713 79.8858 27.7024 79.8022 26.9673C79.6786 25.8812 78.9517 25.4367 77.9191 25.8158C77.2244 26.0708 77.0959 26.2998 77.0188 27.42C76.9694 28.1386 77.0829 28.9214 77.271 29.1595C77.7207 29.7283 79.8553 29.7446 79.8553 29.1791V29.1791ZM77.8628 26.6979C78.1141 26.434 78.5177 26.3163 78.7921 26.4268C79.5914 26.7488 79.3411 27.1643 78.3478 27.1643C77.5119 27.1643 77.4632 27.1174 77.8628 26.6979ZM81.5899 28.0748C81.5899 26.7596 81.667 26.5573 82.1681 26.5573C82.4861 26.5573 82.7463 26.3659 82.7463 26.1321C82.7463 25.8427 82.423 25.7165 81.7344 25.7369L80.7226 25.7671V27.6797C80.7226 29.1775 80.8166 29.5923 81.1562 29.5923C81.4839 29.5923 81.5899 29.2214 81.5899 28.0748ZM20.4443 23.5382C17.7271 22.8047 16.1333 22.1635 14.2412 21.0424C12.0109 19.7211 9.60286 17.7594 9.60286 17.264C9.60286 17.0336 9.65049 16.8452 9.70871 16.8452C9.76692 16.8452 11.0399 17.4545 12.5376 18.1993C20.5905 22.204 30.4392 22.6142 38.4957 19.2805C39.9053 18.6972 40.2479 18.7346 40.2479 19.4717C40.2479 20.4232 35.5666 22.7692 31.9403 23.6351C29.076 24.319 23.1515 24.2691 20.4443 23.5382ZM40.6571 22.2323C41.8902 17.6243 41.8812 17.6002 39.0322 17.851C36.6791 18.0581 36.2698 17.6647 37.9872 16.8465C39.2019 16.2678 41.7308 16.0393 42.6817 16.4224C43.2689 16.659 43.2971 18.8019 42.7316 20.2225C41.9319 22.2316 40.2112 23.8986 40.6571 22.2323ZM1.4857 15.0475C0.82472 14.3536 0.640625 13.8875 0.640625 12.9079C0.640625 10.404 1.92592 9.08919 4.71208 8.74277C6.37364 8.53618 6.53008 8.37955 6.14283 7.31028C5.94394 6.76111 5.64623 6.52606 5.14955 6.52606C4.4345 6.52606 3.53167 7.22535 3.53167 7.7792C3.53167 7.9438 2.97876 8.03648 2.30298 7.98515C0.815706 7.87218 0.552631 7.1112 1.54362 5.78861C3.33308 3.40037 8.12758 3.59379 9.03186 6.0907C9.18691 6.51881 9.3179 8.1918 9.32295 9.80847C9.32953 11.9109 9.45302 12.9156 9.75661 13.337C10.35 14.1606 10.3112 14.282 9.15976 15.204L8.13845 16.0218L7.44217 15.3351L6.7459 14.6484L5.96711 15.2916C5.41236 15.7496 4.77729 15.9347 3.75955 15.9347C2.56585 15.9347 2.19173 15.7887 1.4857 15.0475ZM5.93499 12.9739C6.00246 12.8496 6.1457 12.2357 6.25329 11.6097C6.43809 10.5346 6.40747 10.4716 5.69991 10.4716C4.78727 10.4716 3.40931 11.8236 3.65022 12.4827C3.74403 12.7393 3.82077 13.0647 3.82077 13.2057C3.82077 13.8386 5.56965 13.6469 5.93499 12.9739ZM11.5438 15.7466C11.4303 15.6275 11.3375 13.0261 11.3375 9.96576V4.40153H12.6475C13.5418 4.40153 14.0101 4.54515 14.123 4.85409C14.2627 5.23624 14.4023 5.21263 15.0202 4.70234C15.4227 4.36997 16.0662 4.09803 16.4502 4.09803C17.2969 4.09803 18.7527 4.85057 18.933 5.38153C19.0239 5.64922 19.3045 5.53504 19.8497 5.00854C20.9912 3.90622 22.8862 3.94402 23.9792 5.09091C24.7674 5.91794 24.7825 6.00336 24.8811 10.1885C24.9363 12.5295 24.8996 14.7874 24.7995 15.206C24.6331 15.9021 24.501 15.9592 23.2537 15.875L21.8898 15.7829L21.7453 11.5339L21.6007 7.28481H20.7464C19.6322 7.28481 19.498 7.81766 19.4612 12.3851L19.4324 15.9679L18.0592 15.8754L16.6859 15.7829L16.5414 11.5339C16.3989 7.34726 16.3868 7.28332 15.713 7.18324C15.3369 7.12738 14.8815 7.23607 14.7011 7.42478C14.506 7.6289 14.3145 9.39139 14.2285 11.7754L14.084 15.7829L12.9171 15.8731C12.2753 15.9226 11.6573 15.8657 11.5438 15.7466ZM27.216 15.0475C26.4023 14.1933 26.243 13.6224 26.3624 11.9891C26.492 10.2165 27.8803 9.11415 30.4771 8.72182C31.3194 8.59458 31.9759 8.38992 31.9362 8.26702C31.8964 8.14412 31.8639 7.76613 31.8639 7.42704C31.8639 6.24445 29.7601 6.26703 29.4014 7.45347C29.2447 7.97183 29.0117 8.06057 28.0089 7.9839C26.5471 7.87213 26.2894 7.10254 27.2739 5.78861C29.0634 3.40038 33.8579 3.5938 34.7622 6.0907C34.9172 6.51881 35.0441 8.19984 35.0441 9.82634C35.0441 11.9567 35.1627 12.9483 35.4685 13.3727C36.0637 14.1988 36.036 14.2864 34.8901 15.204L33.8687 16.0218L33.1725 15.3351L32.4762 14.6484L31.6974 15.2916C31.1427 15.7496 30.5076 15.9347 29.4898 15.9347C28.2962 15.9347 27.922 15.7887 27.216 15.0475ZM31.4612 13.1506C31.5764 12.9548 31.7618 12.272 31.8731 11.6331C32.047 10.6347 32.0016 10.4716 31.5496 10.4716C30.0814 10.4716 28.9875 11.7955 29.4377 13.0273C29.6432 13.5893 31.1489 13.6811 31.4612 13.1506ZM47.1842 14.7897C44.153 11.6075 45.3515 4.96124 49.0893 4.2251C52.5896 3.53573 55.3983 7.45835 54.46 11.7259C53.8197 14.6379 52.3742 15.9347 49.7687 15.9347C48.4263 15.9347 48.1642 15.8185 47.1842 14.7897ZM50.9817 13.0043C51.5322 12.3073 51.5203 7.70931 50.9662 7.00832C50.4126 6.30814 49.4453 6.51935 49.0048 7.43657C48.5543 8.37479 48.5229 11.2667 48.9494 12.5508C49.3096 13.6357 50.3071 13.8583 50.9817 13.0043ZM56.0659 15.7466C55.9524 15.6275 55.8596 13.0261 55.8596 9.96576V4.40153H57.1696C58.0522 4.40153 58.5326 4.54631 58.6418 4.84516C58.7761 5.21244 58.9455 5.17895 59.6263 4.65058C60.6939 3.82195 62.3789 4.04933 63.2855 5.14436C64.0993 6.12733 64.2958 7.65169 64.1872 12.1409L64.0991 15.7829H62.6535H61.208L61.0635 11.5339C60.921 7.34726 60.9089 7.28332 60.2351 7.18324C59.859 7.12738 59.4036 7.23629 59.2232 7.42527C59.0281 7.62963 58.8366 9.39271 58.7506 11.7759L58.6061 15.7829L57.4392 15.8731C56.7974 15.9226 56.1794 15.8657 56.0659 15.7466ZM65.2511 15.3131C64.8777 14.078 66.5003 13.2163 67.0958 14.3334C67.4916 15.0759 66.9748 15.9347 66.1321 15.9347C65.6875 15.9347 65.3716 15.7118 65.2511 15.3131ZM68.9298 14.8984C67.7447 13.4814 67.3397 12.0052 67.4788 9.60925C67.6193 7.18968 68.3572 5.44602 69.5689 4.67034C70.6464 3.98056 72.2714 3.93068 73.1287 4.56107C73.7565 5.02271 73.7587 5.01742 73.8435 2.81593L73.9286 0.607742L74.8732 0.512245L75.8178 0.416748L75.7405 8.09983L75.6632 15.7829L74.8682 15.8789C74.2102 15.9584 74.0732 15.8577 74.0732 15.2949V14.6148L73.404 15.2747C72.8983 15.7736 72.3763 15.9347 71.2657 15.9347C69.9556 15.9347 69.7027 15.8224 68.9298 14.8984ZM72.939 13.53C73.7395 12.6895 73.7841 12.5078 73.7841 10.0806C73.7841 7.96699 73.6815 7.38156 73.1983 6.73668C72.0724 5.23406 70.7277 5.41454 69.8554 7.18533C69.5116 7.88338 69.4167 8.74685 69.4922 10.4917C69.5785 12.487 69.7029 12.9746 70.2941 13.6352C71.2027 14.6505 71.8979 14.6229 72.939 13.53ZM78.8218 15.3633C77.489 14.5101 76.584 12.0764 76.7265 9.72804C76.9969 5.26892 80.2478 2.77874 83.2719 4.71427C84.4537 5.47069 85.4181 7.60621 85.2929 9.18991L85.2037 10.3198L81.9513 10.4057C79.0301 10.4827 78.6988 10.5477 78.6988 11.0433C78.6988 12.2306 79.3677 13.5403 80.2068 13.9958C81.3256 14.6031 82.2817 14.3383 83.0842 13.1988C84.1949 11.6216 85.5998 12.33 84.7362 14.0319C83.805 15.8668 80.7001 16.5658 78.8218 15.3633ZM83.3245 8.02978C83.3245 6.97299 82.2159 5.61555 81.3529 5.61555C81.0491 5.61555 80.4708 5.88788 80.0677 6.22073C79.3299 6.83001 78.6009 8.44658 78.9152 8.77653C79.0082 8.87418 80.0384 8.95408 81.2044 8.95408H83.3245V8.02978ZM36.9804 15.4383C36.8695 15.3218 36.7787 14.6887 36.7787 14.0315C36.7787 13.0423 37.1244 12.3217 38.786 9.84707L40.7933 6.85763L39.0028 6.76772L37.2123 6.67781V5.61555V4.55328L40.8984 4.46834L44.5845 4.3834V5.39867C44.5845 6.15722 44.1171 7.10979 42.7362 9.16572L40.8879 11.9175L42.1538 12.0673C42.8501 12.1497 43.7542 12.4472 44.1631 12.7284C44.7758 13.1498 44.8909 13.4365 44.8177 14.3596C44.7205 15.5874 44.8053 15.5666 42.3439 14.9692C40.89 14.6163 39.0225 14.8044 37.6309 15.4438C37.3841 15.5572 37.0914 15.5547 36.9804 15.4383Z" fill="#949494"/>
</svg>
