<svg width="91" height="30" viewBox="0 0 91 30" fill="none" xmlns="http://www.w3.org/2000/svg">
<path fill-rule="evenodd" clip-rule="evenodd" d="M12.9694 1.10805C13.0517 2.68564 13.1339 4.26324 13.2168 5.841C13.2268 6.0333 13.2576 6.22046 12.9746 6.22046C12.7521 6.22046 12.6261 6.18022 12.5933 5.90265C12.5459 5.50076 12.4561 5.10264 12.3594 4.70965C11.8366 2.58701 10.8477 1.70789 8.78522 1.60789C7.67729 1.55412 6.56531 1.59556 5.45559 1.57741C5.18638 1.57313 5.13811 1.69607 5.13844 1.94265C5.14395 4.58739 5.14216 7.23212 5.14136 9.87652C5.14136 10.058 5.13973 10.2275 5.38529 10.2181C6.03483 10.1924 6.68598 10.2661 7.3347 10.1502C7.85595 10.057 8.22105 9.76316 8.49447 9.29808C8.93343 8.55115 9.01215 7.71347 9.0818 6.86876C9.09444 6.71516 9.02349 6.49375 9.26225 6.45266C9.5206 6.40779 9.71141 6.42457 9.70202 6.81294C9.67869 7.76672 9.69457 8.72187 9.69457 9.67651C9.69457 11.2101 9.70493 12.7439 9.68226 14.2769C9.67902 14.491 9.91 14.8763 9.43767 14.9237C8.93878 14.9733 9.11015 14.5619 9.06917 14.3141C8.99255 13.8524 8.96712 13.3805 8.87382 12.9233C8.61401 11.6507 7.94196 11.0586 6.70542 10.9897C6.32153 10.9685 5.9344 11.0008 5.55165 10.9675C5.20793 10.9377 5.13261 11.0782 5.13407 11.4205C5.14638 14.0648 5.14087 16.7093 5.14087 19.3539C5.14087 19.5416 5.14492 19.7292 5.14087 19.9173C5.13763 20.0789 5.17164 20.193 5.35743 20.1875C6.80503 20.1433 8.25879 20.3078 9.70007 20.0453C11.2883 19.756 12.1613 18.6726 12.6092 17.1158C12.8517 16.2734 12.9939 15.4114 13.0504 14.5358C13.0686 14.2499 13.1619 14.1646 13.4257 14.1701C13.7173 14.1761 13.6728 14.3725 13.6687 14.5536C13.6238 16.5554 13.5727 18.5571 13.5349 20.5589C13.5301 20.8294 13.4713 20.9424 13.1883 20.9414C8.79218 20.9298 4.39609 20.9288 0 20.9253V20.1736C0.130555 19.9943 0.316992 19.9596 0.514119 19.9505C0.825118 19.9364 1.13612 19.9476 1.44679 19.9388C2.08288 19.921 2.24794 19.7419 2.26575 19.057C2.26818 18.9633 2.26737 18.8693 2.26737 18.7753V2.99969C2.26737 2.90551 2.26818 2.81184 2.26608 2.71801C2.24923 2.00858 2.08256 1.82929 1.42023 1.81149C1.12429 1.80395 0.827709 1.81799 0.532099 1.79779C0.355542 1.78631 0.170401 1.78649 0.0678689 1.58751C0.0111765 0.872601 0.0111765 0.872601 0.677717 0.872601C4.60861 0.872601 8.5395 0.872258 12.4702 0.87397C12.6649 0.874313 12.9011 0.796914 12.9688 1.10805H12.9694ZM83.604 20.271C84.4652 19.8484 84.8778 19.0981 85.0032 18.1362C85.1635 16.9068 85.1311 15.6698 85.1421 14.4341C85.1446 14.1665 85.0216 14.1293 84.8146 14.1317C84.1931 14.1389 83.5709 14.1197 82.9496 14.1398C82.658 14.149 82.5638 14.0473 82.5662 13.7398C82.5686 13.448 82.6666 13.3673 82.9313 13.3682C85.3297 13.3767 87.7275 13.3745 90.1257 13.3699C90.2804 13.3699 90.4128 13.4059 90.5323 13.5052V14.1627C89.8675 14.1535 89.2024 14.1528 88.538 14.131C88.2322 14.1208 88.2597 14.3357 88.2546 14.5364C88.2254 15.6062 88.0731 16.6491 87.72 17.66C86.6312 20.7782 81.7955 23.1904 78.4532 19.4756C76.8393 17.6818 75.9685 15.4937 75.6567 13.0624C75.254 9.9236 75.6068 6.91294 77.1705 4.14303C77.8784 2.8901 78.7579 1.80738 79.9979 1.1036C80.4841 0.827908 80.9989 0.64246 81.5404 0.529444C81.6711 0.502047 81.8507 0.555986 81.9149 0.355469H83.0698C84.1401 0.6702 85.1253 1.16165 86.0016 1.89488C86.1935 2.05515 86.4039 1.95139 86.5471 1.76012C86.6565 1.61371 86.7601 1.45703 86.8355 1.28956C86.9404 1.05617 87.1254 1.1036 87.2939 1.12106C87.4889 1.14161 87.4422 1.32278 87.4464 1.45292C87.4973 3.04712 87.5448 4.64184 87.5927 6.23622C87.5971 6.39238 87.623 6.56773 87.3912 6.55985C87.2087 6.55369 87.0157 6.62218 86.9577 6.31053C86.7784 5.34065 86.5112 4.39817 86.0649 3.52196C85.0678 1.56354 83.2941 0.774482 81.2655 1.36388C80.3497 1.63015 79.7773 2.27999 79.3708 3.1401C78.9999 3.92539 78.8606 4.77232 78.8136 5.63501C78.6189 9.26212 78.6214 12.8894 78.9044 16.5119C78.9746 17.4064 79.1705 18.2808 79.6365 19.0476C80.2873 20.1185 81.195 20.6901 82.4374 20.5394C82.7711 20.1827 83.19 20.2371 83.6041 20.2705L83.604 20.271ZM34.452 10.887C34.452 7.9609 34.4423 5.03483 34.4622 2.10892C34.4654 1.66371 34.3358 1.54727 33.939 1.57381C33.4378 1.60806 32.9325 1.56782 32.43 1.58751C32.1465 1.59847 32.0385 1.5108 32.0455 1.19469C32.0516 0.908731 32.1368 0.821401 32.406 0.821401C36.462 0.828936 40.5173 0.82962 44.5727 0.820374C44.8594 0.819689 44.9193 0.944177 44.9262 1.20565C44.9738 3.00363 45.0292 4.8016 45.0841 6.59958C45.0889 6.76294 45.1097 6.9078 44.8795 6.92047C44.6527 6.93332 44.5734 6.83571 44.5296 6.61225C44.3871 5.87765 44.2337 5.14476 44.0648 4.41632C43.9946 4.11409 43.8866 3.82008 43.7772 3.53001C43.3467 2.38838 42.5478 1.77381 41.3897 1.65532C40.0744 1.52107 38.7567 1.61508 37.4407 1.57929C37.2051 1.57295 37.1356 1.66833 37.1361 1.90772C37.1415 4.58345 37.1426 7.25918 37.135 9.93474C37.1343 10.2036 37.2221 10.2995 37.4692 10.2835C37.853 10.2584 38.2374 10.2447 38.6216 10.2356C39.6189 10.2128 40.1928 9.61795 40.5113 8.67872C40.7129 8.08453 40.791 7.46346 40.8336 6.83896C40.8505 6.59341 40.9114 6.47543 41.173 6.48382C41.4357 6.49204 41.4483 6.64307 41.4483 6.84992C41.446 9.44757 41.446 12.0447 41.4483 14.6423C41.4486 14.8535 41.4273 14.9929 41.1673 14.9999C40.8989 15.0067 40.8519 14.8792 40.8356 14.6396C40.7947 14.0466 40.7322 13.4564 40.5958 12.8769C40.3031 11.6332 39.7498 11.1368 38.55 11.0692C38.1807 11.0481 37.8098 11.0586 37.4405 11.0389C37.2072 11.0264 37.136 11.1255 37.1365 11.3668C37.1423 14.199 37.1434 17.0313 37.1348 19.8635C37.1339 20.1541 37.2553 20.1952 37.4831 20.1919C38.1493 20.1817 38.8158 20.2027 39.4813 20.1817C39.7722 20.1727 39.8203 20.2991 39.8243 20.5686C39.8284 20.8526 39.7493 20.9424 39.4744 20.9414C37.1209 20.9306 34.7674 20.932 32.4138 20.9397C32.1592 20.9407 32.045 20.8863 32.045 20.5808C32.045 20.2686 32.1409 20.1709 32.4294 20.183C32.9169 20.2032 33.408 20.159 33.894 20.1972C34.3265 20.2315 34.4698 20.1159 34.4654 19.6181C34.4392 16.7078 34.4525 13.7973 34.4525 10.8868L34.452 10.887ZM66.629 10.8925C66.629 13.835 66.6343 16.7773 66.622 19.72C66.6204 20.0745 66.6896 20.208 67.0558 20.1977C68.121 20.1681 69.189 20.143 70.2529 20.1892C71.7096 20.252 72.6199 19.4888 73.2116 18.1696C73.6854 17.1114 73.8665 15.9658 74.1036 14.837C74.1291 14.7148 74.1435 14.587 74.1895 14.4735C74.2689 14.2774 74.4457 14.3533 74.5799 14.3632C74.7864 14.379 74.7248 14.5665 74.7172 14.692C74.5969 16.6749 74.4684 18.6578 74.3515 20.6412C74.3356 20.9015 74.2128 20.9406 74.0064 20.9378C73.3553 20.9298 72.7033 20.9351 72.052 20.9351C68.691 20.9351 65.3299 20.9322 61.9695 20.9399C61.677 20.9406 61.4917 20.9183 61.5202 20.5234C61.5396 20.2515 61.6307 20.1775 61.8705 20.184C62.3884 20.1977 62.9098 20.1532 63.4244 20.1989C63.8645 20.238 63.923 20.0404 63.9217 19.6414C63.9097 16.0263 63.9149 12.4106 63.9149 8.79499C63.9149 6.57235 63.9061 4.35005 63.9223 2.12742C63.9256 1.71987 63.8515 1.53494 63.4179 1.57141C62.9028 1.61508 62.3817 1.56508 61.8642 1.58785C61.5701 1.60052 61.5257 1.46182 61.5225 1.19675C61.5197 0.912498 61.6091 0.820031 61.8809 0.820887C64.2058 0.830305 66.53 0.831504 68.8546 0.820374C69.1575 0.818661 69.1843 0.969349 69.1861 1.22226C69.1873 1.4697 69.1354 1.5947 68.8666 1.587C68.2753 1.56987 67.6815 1.60515 67.0905 1.5733C66.7224 1.55343 66.6185 1.67039 66.6204 2.06474C66.6359 5.00743 66.6288 7.94977 66.6288 10.8925H66.629ZM84.7557 26.0727C84.7557 25.1042 84.7498 24.135 84.7602 23.1661C84.7629 22.8733 84.7197 22.673 84.3792 22.7084C84.2743 22.7195 84.1022 22.7454 84.1152 22.5594C84.1282 22.3873 84.2943 22.4372 84.4038 22.4293C84.5807 22.4163 84.7586 22.4216 84.9356 22.4096C85.6321 22.363 85.6321 22.3617 85.7738 23.0949C86.1247 22.6754 86.4822 22.3185 87.0384 22.3175C87.7357 22.3161 88.1491 22.6778 88.2367 23.41C88.3218 24.1266 88.2857 24.8463 88.2795 25.5644C88.2767 25.9121 88.3203 26.1535 88.7282 26.098C88.8212 26.0853 88.9679 26.0716 88.9768 26.2189C88.9891 26.4134 88.8213 26.3713 88.717 26.3725C88.1404 26.3788 87.5644 26.3771 86.9877 26.373C86.8909 26.3725 86.7519 26.3946 86.7415 26.2458C86.7311 26.0917 86.8695 26.0883 86.9667 26.0973C87.2751 26.1251 87.336 25.9535 87.3314 25.6706C87.3178 24.8744 87.3276 24.0771 87.3156 23.2802C87.3123 23.0504 87.3194 22.7827 87.08 22.6647C86.8282 22.5406 86.5905 22.6476 86.3714 22.7986C86.0432 23.0254 85.8994 23.3874 85.7478 23.7439C85.6153 24.4675 85.7261 25.1977 85.6906 25.9237C85.6825 26.0881 85.77 26.1353 85.9109 26.1395C86.0356 26.1434 86.1754 26.0949 86.2779 26.2778C85.5668 26.3244 84.8566 26.3288 84.0433 26.3203C84.3041 26.0213 84.5815 26.2444 84.7555 26.0727H84.7557ZM81.4553 24.725C81.5454 25.2114 81.5023 25.7025 81.4818 26.1908C81.4749 26.3526 81.3415 26.3732 81.2171 26.3734C80.2844 26.3751 79.3516 26.3833 78.4189 26.371C78.1037 26.3669 78.0512 26.1949 78.2696 25.8632C78.6834 25.2331 79.1112 24.6137 79.5325 23.9899C79.7565 23.6589 79.9796 23.3272 80.2024 22.9957C80.3296 22.8062 80.2831 22.7344 80.0635 22.7115C79.2196 22.6224 78.8559 22.8622 78.5554 23.7315C78.5218 23.8288 78.5274 23.9922 78.397 23.9761C78.2351 23.9555 78.2893 23.7821 78.2828 23.6684C78.2135 22.4277 78.2145 22.4276 79.3819 22.4277C79.9593 22.4277 80.5368 22.4219 81.1142 22.4307C81.5282 22.4365 81.5953 22.5673 81.3517 22.9361C80.7507 23.8475 80.1339 24.7475 79.5257 25.6537C79.4512 25.765 79.3022 25.8763 79.3589 26.0126C79.4193 26.1598 79.5944 26.0883 79.7185 26.0879C80.622 26.0872 80.8896 25.885 81.2352 24.9687C81.2696 24.8773 81.2644 24.7423 81.4552 24.7249L81.4553 24.725Z" fill="#949494"/>
<path fill-rule="evenodd" clip-rule="evenodd" d="M84.7562 26.0756C84.6379 26.1869 84.485 26.1831 84.3415 26.2477H86.0591C85.7049 26.2172 85.6202 25.9766 85.6461 25.6484C85.6968 25.0158 85.5338 24.3701 85.7485 23.747C85.736 24.387 85.7282 25.0275 85.7083 25.667C85.6994 25.9437 85.758 26.1276 86.0702 26.0992C86.1693 26.09 86.3044 26.0948 86.2908 26.2513C86.2778 26.4008 86.1409 26.3771 86.0433 26.3773C84.7134 26.3797 83.3836 26.3795 82.0537 26.3773C81.9549 26.3773 81.8202 26.3927 81.8221 26.236C81.8237 26.0802 81.9604 26.0888 82.057 26.0994C82.3842 26.1353 82.4519 25.9593 82.4467 25.6533C82.4321 24.8251 82.4344 23.9968 82.4457 23.1687C82.4496 22.8759 82.4081 22.6738 82.067 22.7115C81.9737 22.7224 81.8286 22.7423 81.8241 22.5865C81.8184 22.3938 81.9802 22.4399 82.0878 22.4336C82.309 22.4206 82.5316 22.4284 82.7525 22.4117C83.3936 22.3625 83.3936 22.3591 83.3936 23.067C83.3943 23.8793 83.422 24.6937 83.3834 25.5037C83.3601 25.9903 83.5292 26.1516 83.9606 26.1098C84.2243 26.0841 84.4907 26.0859 84.7559 26.0752L84.7562 26.0756ZM59.092 23.2026C58.8649 24.0074 58.9046 24.8355 58.8972 25.6602C58.8947 25.9259 58.9231 26.1294 59.2462 26.0996C59.3441 26.0903 59.4821 26.0876 59.483 26.2377C59.4837 26.3895 59.3454 26.3761 59.2477 26.3764C58.6867 26.3802 58.126 26.3804 57.5652 26.3756C57.47 26.3746 57.329 26.3934 57.3362 26.2331C57.3426 26.0819 57.4811 26.0905 57.5765 26.1001C57.928 26.135 57.9455 25.9071 57.9431 25.6292C57.936 24.818 57.9324 24.0065 57.9447 23.1956C57.9496 22.8853 57.9058 22.6685 57.5438 22.7103C57.4628 22.7197 57.3482 22.7154 57.3373 22.5921C57.3232 22.4278 57.4559 22.4457 57.5531 22.4346C57.6409 22.4247 57.7296 22.4283 57.8184 22.4219C58.112 22.4002 58.4109 22.3308 58.6991 22.3647C59.1401 22.4164 58.7042 22.9349 59.0007 23.0913C59.0792 23.0841 59.1289 23.104 59.0914 23.2026H59.092ZM59.092 23.2026L59.001 23.0909C59.352 22.43 59.9074 22.2396 60.5787 22.3416C61.1359 22.4264 61.6574 23.1606 61.55 23.7326C61.4334 24.3538 61.4585 24.9781 61.4439 25.6033C61.4371 25.903 61.4687 26.1417 61.8392 26.0999C61.9283 26.09 62.0309 26.1136 62.0329 26.2365C62.0353 26.3622 61.9325 26.3756 61.8424 26.3758C61.2654 26.3775 60.688 26.3775 60.1109 26.374C60.0231 26.3734 59.9168 26.3614 59.9213 26.2341C59.9257 26.1097 60.0336 26.092 60.1196 26.1023C60.4935 26.1458 60.5152 25.9064 60.5093 25.6071C60.4952 24.8406 60.5045 24.0735 60.4866 23.307C60.481 23.0656 60.5072 22.7557 60.2286 22.6632C59.9361 22.5656 59.6432 22.6312 59.4122 22.882C59.3099 22.9933 59.1991 23.0961 59.092 23.2029V23.2026ZM61.6155 23.1519C61.7904 22.5793 62.3343 22.2625 63.0179 22.3277C63.554 22.3791 63.9314 22.7421 63.9609 23.3226C64.0001 24.0869 63.9975 24.8538 63.9928 25.6194C63.9906 25.9324 64.0374 26.1456 64.3988 26.1009C64.4976 26.0886 64.6352 26.0954 64.6271 26.2465C64.619 26.3932 64.4814 26.3766 64.3821 26.3773C63.8349 26.3804 63.2874 26.3811 62.7406 26.3764C62.6447 26.3758 62.5068 26.4064 62.4871 26.2588C62.4651 26.097 62.6048 26.0931 62.7006 26.1016C63.0087 26.1283 63.0707 25.9578 63.066 25.6746C63.054 24.9245 63.0709 24.1737 63.0547 23.4235C63.0485 23.1534 63.1016 22.8122 62.814 22.6683C62.4913 22.5065 62.225 22.7505 61.9603 22.9154C61.8437 22.9877 61.8064 23.1915 61.6153 23.1517L61.6155 23.1519ZM83.6045 20.2739C83.2331 20.4486 82.8523 20.5781 82.4376 20.5431C82.3965 20.2534 82.4705 20.0123 82.7447 19.9072C83.0007 19.8096 83.2349 19.8722 83.3964 20.1238C83.4495 20.2067 83.5151 20.2553 83.6045 20.2739ZM57.7293 3.20398C56.7085 1.82039 55.5016 0.772432 53.79 0.500167C53.7275 0.490407 53.6802 0.427734 53.6627 0.427734H52.5964C52.574 0.427734 52.4733 0.515065 52.3903 0.529277C50.846 0.79298 49.6694 1.67998 48.6822 2.9038C45.1133 7.32785 45.1044 14.4079 48.6569 18.9477C49.5181 20.0488 50.5413 20.9019 51.888 21.2086C54.1379 21.7205 55.9176 20.8233 57.3752 19.0578C60.9653 14.7102 61.1166 7.79498 57.7291 3.20398H57.7293ZM56.5886 17.1135C56.3202 19.0655 55.4062 20.1015 53.7783 20.4971C52.1197 20.9003 50.7364 20.1916 50.0042 18.5719C49.5285 17.5195 49.3847 16.392 49.3093 15.2473C49.2802 14.8102 49.24 14.373 49.2351 13.9353C49.2241 12.9182 49.2319 11.901 49.2319 10.8839C49.2034 8.89619 49.2018 6.90781 49.4827 4.93483C49.5599 4.39167 49.6864 3.86204 49.8908 3.35501C50.4681 1.92485 51.5511 1.27518 52.9623 1.2084C54.427 1.13939 55.5434 1.7769 56.2096 3.19576C56.5773 3.97899 56.743 4.82421 56.8025 5.68501C57.0668 9.50048 57.1105 13.3166 56.5886 17.1133V17.1135ZM73.5036 22.6072C73.443 22.3932 73.2894 22.3272 73.0921 22.3257C72.9031 22.324 72.7342 22.3899 72.6117 22.5312C72.4416 22.7271 72.302 22.7459 72.0882 22.5803C71.6918 22.2728 71.221 22.2557 70.7661 22.3666C70.217 22.5002 69.7907 22.8295 69.642 23.442C69.5027 24.0148 69.7204 24.448 70.1587 24.78C70.1759 24.7929 70.1742 24.8336 70.1872 24.8852C70.0856 24.936 69.9786 24.9819 69.8785 25.0415C69.263 25.4079 69.1787 26.3864 69.758 26.8162C70.0615 27.0417 69.9661 27.1165 69.7408 27.2932C69.2217 27.7008 69.2408 28.265 69.7505 28.6969C69.9886 28.8982 70.2972 28.9256 70.5436 29.0986H71.6094C71.9662 28.9217 72.3723 28.8722 72.689 28.5883C73.2089 28.1215 73.413 27.4205 73.1922 26.7742C73.0069 26.2326 72.5628 25.9982 71.8025 26.0311C71.2998 26.053 70.7971 26.0761 70.2941 26.0773C70.08 26.0778 69.803 26.0961 69.7534 25.7937C69.698 25.4598 69.9726 25.3525 70.2005 25.24C70.3404 25.1715 70.4899 25.2006 70.6378 25.2098C70.8889 25.2252 71.1427 25.2509 71.391 25.2261C72.4912 25.1153 73.003 24.262 72.6339 23.1713C72.5999 23.0706 72.5184 22.9713 72.6263 22.875C72.7513 22.7637 72.8428 22.8471 72.924 22.9514C73.0591 23.1261 73.2246 23.1517 73.3937 23.0284C73.5308 22.9288 73.55 22.7689 73.5039 22.6067L73.5036 22.6072ZM70.0476 27.5991C70.1386 27.2609 70.3349 27.0206 70.7107 27.0283C70.9615 27.0335 71.2124 27.0294 71.463 27.0294C71.7861 26.9818 72.1096 26.9186 72.4322 27.0015C72.9758 27.1412 73.1385 27.5782 72.8283 28.0609C72.389 28.745 70.9632 29.0306 70.3257 28.558C70.0006 28.3174 69.9476 27.9689 70.0477 27.5991H70.0476ZM71.8553 24.2617C71.8025 24.8066 71.6483 24.9542 71.1552 24.9415C70.7 24.9295 70.5565 24.7805 70.5291 24.2386C70.512 23.8971 70.5194 23.5536 70.5332 23.2118C70.5483 22.8187 70.7486 22.6228 71.1273 22.6159C71.5161 22.6086 71.7957 22.7433 71.8517 23.1887C71.8766 23.3887 71.8753 23.5922 71.8818 23.7124C71.8705 23.9504 71.87 24.1067 71.8551 24.2617H71.8553ZM30.9217 20.1303C30.843 19.8378 30.6209 20.0947 30.4866 20.1279C29.6077 20.3466 29.0421 19.9935 28.8353 19.0616C28.8082 18.94 28.7932 18.8155 28.775 18.6921C28.6223 17.6518 28.7269 16.5991 28.6195 15.554C28.4255 13.6632 27.7076 12.1413 26.0816 11.1899C25.5614 10.8856 25.0093 10.6693 24.4431 10.4399C25.264 10.1919 26.0716 9.94604 26.8326 9.55631C28.6963 8.60167 29.5347 6.80661 29.1416 4.53225C28.8727 2.97606 27.8325 1.12004 25.374 0.913359C24.7087 0.857193 24.0446 0.829111 23.3784 0.829111C20.9508 0.829111 18.5232 0.830138 16.0953 0.827912C15.8362 0.82757 15.6175 0.79024 15.6172 1.21559C15.6169 1.66251 15.867 1.58375 16.1091 1.58426C16.5829 1.58563 17.0583 1.61114 17.5297 1.57638C17.9142 1.54813 18.0341 1.66371 18.0295 2.08906C18.0078 4.18601 18.0198 6.28314 18.0198 8.38026C18.0198 12.12 18.0124 15.8602 18.0292 19.6005C18.0312 20.0537 17.9552 20.2488 17.4801 20.2027C16.9663 20.1531 16.4444 20.2053 15.9271 20.1866C15.6387 20.176 15.6298 20.3421 15.6274 20.5685C15.6254 20.8002 15.6444 20.9447 15.929 20.9435C18.2233 20.9329 20.5178 20.9332 22.8123 20.9431C23.0802 20.9443 23.1309 20.8301 23.1309 20.5818C23.1309 20.3212 23.0899 20.1748 22.793 20.1854C22.2163 20.2067 21.6381 20.1811 21.0614 20.1964C20.8107 20.2027 20.7278 20.1133 20.7286 19.8474C20.7354 16.9056 20.7344 13.9634 20.7302 11.0212C20.7299 10.7877 20.7937 10.6827 21.0331 10.688C21.7576 10.7034 22.4838 10.6652 23.2043 10.7866C24.1821 10.9514 24.9028 11.4471 25.2685 12.4699C25.5447 13.2422 25.6994 14.0225 25.6872 14.8506C25.6733 15.804 25.5507 16.7667 25.6832 17.7102C26.1241 20.8507 28.0947 21.7582 30.6578 20.8527C31.0563 20.712 30.9912 20.3861 30.9222 20.1301L30.9217 20.1303ZM21.0352 9.93868C20.7072 9.95066 20.7313 9.73713 20.7315 9.51179C20.7326 8.24464 20.732 6.97784 20.732 5.71104C20.732 4.47557 20.7407 3.23977 20.726 2.0043C20.7219 1.68067 20.811 1.56765 21.1256 1.57912C22.1746 1.61714 23.2245 1.55053 24.2741 1.65447C25.1888 1.74556 25.7708 2.27742 26.0078 3.15723C26.4722 4.88277 26.4014 6.62869 25.9203 8.33814C25.6676 9.23541 25.0594 9.75117 24.1385 9.85751C23.104 9.97703 22.0691 9.90203 21.035 9.93902L21.0352 9.93868ZM77.195 25.4567C77.1876 24.7381 77.1902 24.019 77.1795 23.3004C77.173 22.8723 77.0233 22.5195 76.5957 22.4163C75.937 22.2574 75.2767 22.2468 74.6406 22.5413C74.4615 22.624 74.3078 22.7485 74.2065 22.9286C74.0834 23.1461 74.053 23.3755 74.2124 23.5855C74.3504 23.7675 74.5452 23.787 74.7362 23.6985C74.9934 23.579 75.0109 23.3577 74.9209 23.1086C74.8178 22.8236 74.961 22.7062 75.1969 22.6442C75.9274 22.4528 76.1904 22.6849 76.239 23.4906C76.2663 23.9403 76.1621 24.1341 75.6964 24.143C75.1949 24.1526 74.697 24.2872 74.277 24.6134C73.9088 24.8997 73.7564 25.2884 73.874 25.7658C73.9801 26.1965 74.3319 26.4525 74.807 26.4871C75.2286 26.5179 75.6075 26.4061 75.9033 26.0884C76.1151 25.8607 76.2369 25.7932 76.3992 26.1449C76.569 26.5126 76.9192 26.5234 77.2529 26.4691C77.5801 26.4155 77.7607 26.1941 77.834 25.7734C77.2937 26.1068 77.2012 26.0508 77.195 25.4569V25.4567ZM75.9566 25.7396C75.7398 25.9631 75.4905 26.0718 75.193 25.9824C74.9516 25.9098 74.842 25.7037 74.8167 25.4567C74.7827 25.1288 74.8553 24.8286 75.1319 24.6365C75.3853 24.4605 75.6799 24.4139 75.9775 24.4081C76.3268 24.4016 76.2018 24.6913 76.2322 24.8485C76.2355 25.2013 76.1879 25.5009 75.9566 25.7396ZM68.3526 25.3995C68.3437 24.6798 68.3387 23.96 68.3381 23.2403C68.3377 22.7808 68.1223 22.4834 67.7112 22.3973C67.0957 22.2678 66.4753 22.2504 65.8773 22.511C65.6385 22.6151 65.4262 22.7644 65.3314 23.0298C65.2553 23.2439 65.2498 23.4694 65.4335 23.636C65.598 23.7846 65.7911 23.7833 65.9701 23.6646C66.17 23.5324 66.1674 23.3279 66.0939 23.1238C66.036 22.962 66.0161 22.8307 66.1776 22.717C66.6953 22.3522 67.3481 22.6731 67.4022 23.3249C67.4099 23.4182 67.4077 23.5129 67.4184 23.606C67.4556 23.9502 67.349 24.1143 66.9859 24.1283C66.4509 24.1488 65.9246 24.267 65.4707 24.5978C65.0781 24.8838 64.9273 25.3345 65.0502 25.7906C65.16 26.1975 65.5307 26.4489 66.0053 26.4901C66.5787 26.5398 66.9872 26.222 67.3999 25.7819C67.58 26.377 67.9428 26.573 68.4502 26.466C68.7715 26.3975 68.9426 26.1761 69.0109 25.8064C68.4459 26.0898 68.3611 26.0324 68.3533 25.3992L68.3526 25.3995ZM67.4234 24.7934C67.3945 25.1865 67.367 25.4925 67.1331 25.7326C66.9149 25.9562 66.6676 26.0722 66.3712 25.9836C66.1342 25.9129 66.0176 25.7148 65.997 25.459C65.9695 25.1131 66.032 24.8023 66.342 24.6107C66.5226 24.499 66.7269 24.4603 66.931 24.4211C67.2792 24.3538 67.4908 24.4394 67.4234 24.7935V24.7934Z" fill="#949494"/>
</svg>
