<svg width="128" height="27" viewBox="0 0 128 27" fill="none" xmlns="http://www.w3.org/2000/svg">
<path d="M82.7305 19.7919C80.2264 12.8095 79.5482 11.4503 78.5681 11.4503C78.2004 11.4503 77.9799 11.1933 78.0781 10.879C78.3058 10.1508 84.481 10.1157 84.7078 10.8413C84.7925 11.1122 84.4682 11.4437 83.9872 11.5779C82.7795 11.9148 82.8805 12.945 84.5554 17.374L85.9981 21.1887L87.1263 17.5749C88.5219 13.1047 88.5281 12.4778 87.1833 11.8242C85.1584 10.84 85.9549 10.2692 89.3255 10.2889C92.5695 10.3079 93.154 10.6415 91.797 11.7C91.1471 12.2069 91.1167 12.5263 91.5532 14.2669C91.8273 15.3602 92.4643 17.2818 92.9686 18.537C94.0328 21.1852 94.083 21.1357 95.6995 15.8431C96.8293 12.1444 96.8281 11.4503 95.6915 11.4503C95.3322 11.4503 95.1146 11.2061 95.2079 10.9075C95.4375 10.1729 100.352 10.1729 100.582 10.9075C100.675 11.2061 100.55 11.4503 100.304 11.4503C99.2812 11.4503 98.133 13.6293 95.9627 19.6888C94.7003 23.2134 93.488 26.0332 93.2687 25.9553C93.0494 25.8774 92.1036 23.6616 91.1669 21.0315C90.2301 18.4014 89.4206 16.2025 89.3679 16.1451C89.3153 16.0875 88.4526 18.2987 87.451 21.0586C86.4493 23.8185 85.4845 26.0766 85.3068 26.0766C85.1292 26.0766 83.9696 23.2485 82.73 19.7919L82.7305 19.7919ZM35.6318 24.6877C34.524 23.5868 34.466 22.8451 35.3456 21.0307C36.0077 19.6648 37.8829 18.4252 40.8209 17.4113L42.4487 16.8496L42.3206 14.5398C42.1697 11.8188 41.3882 11.013 39.5641 11.6973C38.7601 11.9989 38.2788 12.5964 38.0366 13.5933C37.6591 15.1472 36.226 16.0098 35.4308 15.1616C34.6988 14.3807 35.9165 12.4424 37.9296 11.1839C40.1343 9.80571 43.2165 9.67495 44.2685 10.915C44.8495 11.5998 44.9776 12.7929 44.9776 17.5156C44.9776 20.7027 45.1614 23.4015 45.3887 23.5513C45.6148 23.7004 46.1845 23.5668 46.6547 23.2527C47.8118 22.4819 48.2921 23.1194 47.3716 24.2045C46.2749 25.4972 44.6439 25.791 43.3981 24.9202C42.4291 24.2429 42.2153 24.2412 40.9149 24.8993C38.9338 25.9022 36.7665 25.8153 35.6318 24.6876L35.6318 24.6877ZM41.2777 22.844C42.6103 21.7259 42.9325 18.7635 41.7216 18.7635C40.8115 18.7635 38.1219 20.1405 38.1219 20.6065C38.1219 20.8087 38.0144 21.2729 37.883 21.6382C37.6162 22.3799 38.738 23.7913 39.5944 23.7913C39.8993 23.7913 40.6568 23.365 41.2777 22.844ZM102.132 24.7753C100.611 23.7556 98.9655 20.493 98.969 18.505C98.9788 13.1953 103.155 8.9844 107.494 9.91002C110.274 10.5033 112.662 14.4893 110.715 15.2865C110.342 15.4391 108.221 15.564 106.002 15.564H101.966V17.415C101.966 19.5643 102.843 21.6057 104.201 22.6209C105.595 23.6623 108.468 23.5338 109.858 22.368C111.108 21.3192 111.848 21.5483 111.13 22.7619C109.57 25.4005 104.691 26.492 102.132 24.7753ZM108.393 13.1234C108.393 11.0652 105.418 10.5327 103.573 12.2608C102.082 13.6569 102.647 14.1928 105.608 14.1928C108.242 14.1928 108.393 14.1349 108.393 13.1234ZM0.84375 24.6942C0.84375 24.4365 1.32578 24.0303 1.91496 23.7913C2.97206 23.3626 2.98616 23.2875 2.98616 18.0892C2.98616 13.1797 2.92964 12.8216 2.15448 12.8216C0.847783 12.8216 0.678224 11.9519 1.88917 11.4608C2.55524 11.1907 2.98616 10.6612 2.98616 10.1129C2.98616 6.02031 5.1648 1.90491 8.00041 0.641052C9.87616 -0.194964 10.8476 -0.136076 12.0301 0.885303C12.8854 1.62409 12.9458 1.85234 12.4536 2.48503C11.8174 3.30277 10.041 3.47937 9.62766 2.76597C9.48207 2.51458 8.89714 2.30889 8.32793 2.30889C6.89387 2.30889 6.00271 4.33742 5.87469 7.89307L5.77137 10.7648L7.97537 10.9012C9.90059 11.0204 10.1524 11.1476 9.96636 11.9065C9.80249 12.575 9.29423 12.807 7.76238 12.9127L5.77137 13.0501L5.6457 17.3923C5.49136 22.7265 5.68036 23.6104 7.05303 23.978C9.29784 24.579 8.0332 25.1625 4.48585 25.1625C2.2848 25.1625 0.84375 24.9772 0.84375 24.6941V24.6942ZM10.9131 24.7062C10.7675 24.4548 11.0385 24.2491 11.5155 24.2491C12.8759 24.2491 13.2698 22.8315 13.2698 17.936C13.2698 13.7863 13.1893 13.3339 12.3446 12.7356C11.4373 12.093 11.4575 12.0566 13.385 10.8516C14.4661 10.1758 15.4126 9.62269 15.4885 9.62254C15.5643 9.62237 15.5602 12.4795 15.4788 15.9718C15.3287 22.4474 15.6438 24.2491 16.9265 24.2491C17.2717 24.2491 17.5541 24.4548 17.5541 24.7062C17.5541 24.97 16.2057 25.1633 14.3658 25.1633C12.6122 25.1633 11.0583 24.9576 10.9126 24.7062H10.9131ZM17.9831 24.737C17.9831 24.5025 18.417 24.1663 18.9472 23.9898C20.3967 23.5073 20.5403 23.0108 20.5475 18.4588C20.5539 13.8862 20.345 12.8223 19.437 12.8223C18.3758 12.8223 18.8 12.0579 20.5448 10.8262C22.6632 9.33081 23.1249 9.31874 23.1249 10.7586V11.8946L24.5175 10.9889C26.5369 9.67546 29.5889 9.76445 31.1351 11.1818C32.3118 12.2604 32.3404 12.4021 32.4809 17.8355C32.6202 23.221 32.6554 23.3996 33.6592 23.8067C35.7177 24.6416 34.7151 25.1631 31.0519 25.1631C27.3662 25.1631 26.3873 24.6411 28.481 23.792C29.53 23.3665 29.5522 23.2577 29.5522 18.5469C29.5522 14.3458 29.4437 13.6205 28.6952 12.8222C27.6784 11.7376 26.525 11.6636 24.8695 12.5768C23.2636 13.4626 23.1249 13.9765 23.1249 19.0414C23.1249 23.2247 23.158 23.3709 24.1961 23.792C26.2898 24.6411 25.3109 25.1631 21.6252 25.1631C19.6221 25.1631 17.9831 24.9714 17.9831 24.7369V24.737ZM47.977 24.6948C47.977 24.4372 48.4591 24.031 49.0482 23.792C50.1004 23.3653 50.1194 23.2692 50.1194 18.3742C50.1194 13.7754 50.048 13.3403 49.1943 12.7355C48.287 12.0929 48.3071 12.0565 50.2346 10.8515C52.6652 9.33207 53.1188 9.31745 53.1188 10.7587V11.8947L54.5114 10.989C55.8763 10.1013 58.7521 9.78351 60.1696 10.3638C61.57 10.937 62.1167 13.0574 62.1236 17.9417C62.13 22.845 62.2674 23.4364 63.5096 23.9253C65.315 24.6359 64.0829 25.1633 60.6173 25.1633C57.07 25.1633 55.8053 24.5797 58.0501 23.9787C59.4267 23.6102 59.6728 22.513 59.4833 17.5902C59.3474 14.0615 59.2229 13.5616 58.2766 12.7442C57.0776 11.7085 55.1958 11.873 53.8968 13.1271C53.2368 13.7642 53.1188 14.6253 53.1188 18.8033C53.1188 23.5087 53.1603 23.735 54.0494 23.8745C54.5611 23.9549 55.0592 24.2776 55.1563 24.5919C55.2883 25.0192 54.4055 25.1633 51.6548 25.1633C49.4294 25.1633 47.977 24.9783 47.977 24.6948ZM65.1164 24.9047C65.1164 24.3297 66.2754 22.417 69.3912 17.85C71.1921 15.2104 72.8101 12.7937 72.9868 12.4795C73.2287 12.0493 72.709 11.9081 70.8839 11.9081C68.7427 11.9081 68.3194 12.0683 67.2588 13.2793C65.7347 15.0198 65.0071 15.0641 65.3826 13.3935C65.9416 10.9067 66.833 9.51945 67.6091 9.92842C68.0056 10.1373 70.4028 10.2484 72.9362 10.1752C75.4696 10.102 77.5424 10.2266 77.5424 10.4522C77.5424 10.6778 76.9037 11.7661 76.1229 12.8707C74.0195 15.8466 69.4012 23.1431 69.4012 23.4905C69.4012 23.983 73.133 23.8329 74.2378 23.2959C74.7991 23.0231 75.5904 22.2003 75.9961 21.4676C76.9633 19.7211 77.5438 19.7788 77.5366 21.6209C77.522 25.2622 77.7031 25.1631 71.0652 25.1631C67.7934 25.1631 65.1164 25.0468 65.1164 24.9046V24.9047ZM111.498 24.5919C111.595 24.2776 112.093 23.9548 112.605 23.8745C113.524 23.7302 113.535 23.6185 113.535 14.6348C113.535 5.88455 113.501 5.522 112.641 5.03108C111.597 4.43456 111.768 4.16223 113.65 3.42929C114.412 3.13276 115.372 2.73747 115.785 2.55093C116.486 2.23353 116.535 2.89077 116.535 12.7847V23.3576L117.606 23.792C119.706 24.6438 118.718 25.1632 114.999 25.1632C112.248 25.1632 111.366 25.0191 111.498 24.5919ZM120.869 24.3025C120.015 23.3909 119.962 22.8727 119.962 15.3361C119.962 7.72316 119.922 7.33735 119.131 7.33735C117.436 7.33735 117.661 6.25792 119.768 4.27982C120.923 3.19618 122.005 2.30958 122.173 2.30958C122.341 2.30958 122.539 2.97805 122.613 3.79506C122.744 5.24625 122.8 5.28379 125.024 5.41972C126.894 5.53409 127.276 5.69714 127.162 6.33383C127.057 6.92267 126.485 7.14203 124.779 7.24699L122.533 7.38517L122.54 14.1031C122.543 17.798 122.662 21.2861 122.805 21.8545C123.113 23.0786 124.672 23.614 125.896 22.9155C126.375 22.642 126.87 22.5971 126.997 22.8155C127.431 23.5654 125.567 24.8144 123.673 25.0422C122.135 25.2271 121.606 25.0876 120.87 24.3024L120.869 24.3025ZM13.2869 7.1308C12.1524 5.67261 13.8263 3.38056 15.1621 4.56313C15.9681 5.27672 16.042 6.48274 15.3265 7.24599C14.6395 7.9788 13.9148 7.93786 13.2869 7.13074V7.1308Z" fill="#949494"/>
</svg>
