<svg width="117" height="33" viewBox="0 0 117 33" fill="none" xmlns="http://www.w3.org/2000/svg">
<path d="M19.6762 32.2491C19.5865 32.2491 19.513 32.1421 19.513 32.0114C19.513 31.8807 19.5448 31.6856 19.5837 31.5778C19.6225 31.47 19.7535 31.3818 19.8747 31.3818C19.9959 31.3818 20.095 31.4014 20.095 31.4253C20.095 31.4492 20.0375 31.6443 19.9672 31.8589C19.897 32.0735 19.766 32.2491 19.6762 32.2491ZM35.2134 32.2491C35.0929 32.2491 34.9942 32.2295 34.9942 32.2056C34.9942 32.1817 35.0517 31.9866 35.122 31.772C35.1923 31.5574 35.3232 31.3818 35.413 31.3818C35.5028 31.3818 35.5755 31.4515 35.5746 31.5367C35.5737 31.6219 35.5415 31.817 35.5028 31.9703C35.4616 32.1343 35.3424 32.2491 35.2134 32.2491ZM3.22856 31.7535H2.75145V30.5146V29.2757H3.43181C3.94131 29.2757 4.1602 29.3322 4.30342 29.5006C4.40861 29.6244 4.52767 29.9011 4.56799 30.1157C4.60831 30.3303 4.60756 30.6973 4.56631 30.9313C4.50921 31.2553 4.39766 31.404 4.0985 31.5551C3.88244 31.6642 3.49097 31.7535 3.22856 31.7535ZM3.28676 31.5057C3.3251 31.5057 3.53462 31.4157 3.75236 31.3058C4.12091 31.1196 4.14825 31.0651 4.14825 30.5157C4.14825 30.1911 4.08248 29.8674 4.0021 29.7964C3.92171 29.7254 3.71219 29.6289 3.5365 29.582L3.21705 29.4966V30.5012C3.21705 31.0537 3.24842 31.5057 3.28676 31.5057ZM5.65245 31.7281C5.43333 31.7481 5.14929 31.6829 5.02125 31.5831C4.84159 31.4431 4.79109 31.2678 4.80003 30.8153C4.80826 30.3987 4.87371 30.1805 5.02598 30.062C5.14388 29.9702 5.3845 29.8952 5.56069 29.8952C5.75978 29.8952 5.94963 29.9994 6.06224 30.1705C6.1619 30.3219 6.24344 30.5449 6.24344 30.6661C6.24344 30.8445 6.14399 30.8863 5.71964 30.8863C5.34118 30.8863 5.19585 30.9358 5.19585 31.0648C5.19585 31.163 5.25982 31.2854 5.33801 31.3368C5.41621 31.3883 5.63049 31.4182 5.8142 31.4033C6.04035 31.3849 6.13249 31.4271 6.09953 31.5339C6.07276 31.6206 5.87157 31.708 5.65245 31.7281ZM5.48685 30.6385C5.65798 30.6385 5.77784 30.5674 5.77784 30.4659C5.77784 30.371 5.70566 30.2639 5.61743 30.2278C5.5292 30.1918 5.39825 30.2248 5.32643 30.3013C5.25461 30.3777 5.19585 30.4849 5.19585 30.5394C5.19585 30.5939 5.3268 30.6385 5.48685 30.6385ZM7.41353 31.7349C7.03386 31.7441 6.77604 31.6832 6.65693 31.5564C6.53425 31.4259 6.47624 31.1283 6.47624 30.6296C6.47624 30.0594 6.51528 29.8952 6.65084 29.8952C6.78243 29.8952 6.82544 30.0456 6.82544 30.5058C6.82544 30.9012 6.8913 31.1865 7.01238 31.3153C7.1567 31.4689 7.23629 31.4816 7.36158 31.3709C7.46352 31.2809 7.52384 30.9799 7.52384 30.5614V29.8952H7.91767C8.2136 29.8952 8.32662 29.8336 8.37237 29.6474C8.40585 29.5111 8.49053 29.3996 8.56054 29.3996C8.63056 29.3996 8.68784 29.5111 8.68784 29.6474C8.68784 29.8126 8.76544 29.8952 8.92064 29.8952C9.04868 29.8952 9.15344 29.9509 9.15344 30.019C9.15344 30.0872 9.04594 30.1429 8.91456 30.1429C8.6999 30.1429 8.67924 30.2079 8.71086 30.7839L8.74604 31.4249L9.30474 31.4178C9.61202 31.414 9.90011 31.3699 9.94494 31.3198C9.98976 31.2698 9.92857 31.1657 9.80894 31.0886C9.68931 31.0114 9.48168 30.8572 9.34753 30.746C9.13505 30.5698 9.12151 30.5019 9.24243 30.2194C9.35867 29.9479 9.4574 29.8952 9.84935 29.8952C10.193 29.8952 10.3174 29.9458 10.3174 30.0857C10.3174 30.2181 10.2235 30.2653 10.0095 30.2405C9.84021 30.2209 9.68547 30.2606 9.66568 30.3288C9.6459 30.3969 9.80747 30.5733 10.0247 30.7207L10.4198 30.9888L10.5003 30.5986C10.5446 30.384 10.6656 30.1397 10.7692 30.0557C10.8728 29.9717 11.1541 29.9013 11.3941 29.8991C11.7201 29.8962 11.8306 29.9459 11.8306 30.0954C11.8306 30.2397 11.7603 30.2761 11.579 30.2257C11.4406 30.1872 11.2311 30.2105 11.1134 30.2775C10.9696 30.3595 10.8994 30.5387 10.8994 30.8243C10.8994 31.11 10.9696 31.2892 11.1134 31.3711C11.2311 31.4382 11.4406 31.4615 11.579 31.423C11.7603 31.3725 11.8306 31.4089 11.8306 31.5532C11.8306 31.7002 11.7202 31.7535 11.4156 31.7535C11.1873 31.7535 10.8992 31.6958 10.7754 31.6253C10.6516 31.5547 10.5486 31.4014 10.5467 31.2846C10.5437 31.1037 10.5236 31.1089 10.4111 31.3199C10.3385 31.4562 10.2233 31.6068 10.155 31.6546C10.0868 31.7024 9.68218 31.7403 9.25592 31.7389C8.48549 31.7363 8.48049 31.7341 8.40977 31.3577C8.37065 31.1495 8.33864 30.791 8.33864 30.5611C8.33864 30.272 8.28475 30.1429 8.16404 30.1429C8.02712 30.1429 7.98944 30.3132 7.98944 30.932V31.7211L7.41353 31.7349ZM12.1216 31.7535C11.977 31.7535 11.947 31.5195 11.947 30.3907C11.947 29.2619 11.977 29.0279 12.1216 29.0279C12.2462 29.0279 12.2962 29.1628 12.2962 29.4986C12.2962 29.9603 12.3037 29.9684 12.6893 29.9205C12.9991 29.882 13.1224 29.9324 13.2713 30.1587C13.3877 30.3356 13.4602 30.6969 13.4602 31.0997C13.4602 31.6709 13.4308 31.7535 13.2274 31.7535C13.021 31.7535 12.9946 31.6709 12.9946 31.0234C12.9946 30.4948 12.9473 30.274 12.8232 30.2233C12.7241 30.1829 12.5768 30.2673 12.474 30.4235C12.3762 30.5721 12.2962 30.9321 12.2962 31.2236C12.2962 31.612 12.2496 31.7535 12.1216 31.7535ZM13.8676 31.7535C13.723 31.7535 13.693 31.5195 13.693 30.3907C13.693 29.2619 13.723 29.0279 13.8676 29.0279C14.0123 29.0279 14.0422 29.2619 14.0422 30.3907C14.0422 31.5195 14.0123 31.7535 13.8676 31.7535ZM15.1453 31.7367C14.5653 31.7509 14.4894 31.7221 14.3695 31.442C14.2554 31.1754 14.275 31.0881 14.5089 30.8231C14.6587 30.6534 14.9074 30.5146 15.0616 30.5146C15.2357 30.5146 15.3226 30.4559 15.2907 30.3597C15.2625 30.2746 15.1664 30.2126 15.0773 30.2221C14.9882 30.2316 14.8183 30.2815 14.6997 30.3331C14.5291 30.4073 14.4929 30.3779 14.5261 30.192C14.5564 30.0221 14.6845 29.9467 14.989 29.9196C15.2611 29.8953 15.477 29.9532 15.5992 30.0833C15.7302 30.2227 15.7882 30.5051 15.7882 31.0027V31.7209L15.1453 31.7367ZM15.0032 31.4745C15.0719 31.4501 15.2045 31.3078 15.2978 31.1582C15.4573 30.9024 15.45 30.8863 15.1747 30.8863C15.0137 30.8863 14.85 30.9749 14.8109 31.0833C14.7718 31.1917 14.771 31.334 14.8091 31.3996C14.8472 31.4651 14.9346 31.4989 15.0032 31.4745H15.0032ZM16.1812 31.7535C16.0595 31.7535 16.021 31.5305 16.021 30.8243V29.8952H16.5798C16.887 29.8952 17.2013 29.9621 17.2782 30.0438C17.3572 30.128 17.4178 30.5311 17.4178 30.973C17.4178 31.5842 17.38 31.7535 17.2432 31.7535C17.1097 31.7535 17.0686 31.5969 17.0686 31.0873C17.0686 30.6962 17.0069 30.3666 16.9192 30.2891C16.8319 30.212 16.7032 30.2009 16.6096 30.2625C16.5171 30.3234 16.4265 30.6608 16.3954 31.0607C16.3582 31.5384 16.2917 31.7535 16.1812 31.7535ZM18.7043 31.7349C18.3247 31.7441 18.0668 31.6832 17.9477 31.5564C17.8397 31.4415 17.767 31.147 17.767 30.8243C17.767 30.4863 17.8393 30.2076 17.9605 30.0786C18.0878 29.9431 18.2867 29.8892 18.5425 29.921C18.9227 29.9683 18.931 29.9592 18.931 29.4986C18.931 29.1628 18.9811 29.0279 19.1056 29.0279C19.2501 29.0279 19.2802 29.2601 19.2802 30.3745V31.7211L18.7043 31.7349ZM18.6516 31.4219C18.7297 31.39 18.8269 31.2227 18.8676 31.05C18.9137 30.8548 18.8728 30.6243 18.7594 30.4401C18.602 30.1844 18.5456 30.1649 18.3467 30.2971C18.1948 30.3981 18.1162 30.5859 18.1162 30.848C18.1162 31.0925 18.192 31.2908 18.3129 31.3628C18.4211 31.4272 18.5735 31.4538 18.6516 31.4219ZM22.3248 31.7535C22.0473 31.7535 21.7585 31.6602 21.592 31.5167C21.3586 31.3155 21.3172 31.1681 21.3172 30.5386C21.3172 29.9835 21.3729 29.7318 21.539 29.5365C21.7054 29.3408 21.8993 29.2757 22.3162 29.2757C22.7777 29.2757 22.9126 29.331 23.113 29.6021C23.2827 29.8317 23.3542 30.1091 23.3542 30.5369C23.3542 31.0177 23.2943 31.2091 23.0685 31.4494C22.862 31.6692 22.6559 31.7535 22.3248 31.7535ZM22.3378 31.5057C22.3905 31.5057 22.5622 31.3689 22.7193 31.2016C22.8768 31.034 23.005 30.7523 23.005 30.574C23.005 30.3961 22.9514 30.144 22.886 30.0137C22.8205 29.8835 22.6598 29.716 22.529 29.6414C22.3451 29.5367 22.2267 29.5507 22.0078 29.7034C21.7713 29.8683 21.7246 30.0014 21.7246 30.5104C21.7246 30.9999 21.7756 31.158 21.9833 31.3129C22.1256 31.4189 22.2851 31.5057 22.3378 31.5057ZM23.8558 31.7535C23.5868 31.7535 23.4706 31.696 23.4706 31.563C23.4706 31.4306 23.5645 31.3833 23.7785 31.4081C23.9479 31.4277 24.1093 31.3742 24.1374 31.2891C24.1654 31.204 24.0272 31.0367 23.8302 30.9174C23.6138 30.7863 23.4718 30.6 23.4714 30.4465C23.471 30.3068 23.5335 30.1256 23.6103 30.0438C23.6871 29.9621 23.9228 29.8952 24.1341 29.8952C24.4048 29.8952 24.5182 29.9523 24.5182 30.0888C24.5182 30.199 24.4305 30.2729 24.3145 30.2603C24.2025 30.2482 24.0454 30.2447 23.9653 30.2526C23.8853 30.2604 23.8198 30.3158 23.8198 30.3757C23.8198 30.4356 23.9776 30.5541 24.1705 30.6392C24.3838 30.7332 24.5501 30.9165 24.5951 31.1071C24.6481 31.3321 24.6087 31.4673 24.4549 31.587C24.3372 31.6786 24.0676 31.7535 23.8558 31.7535ZM25.3981 31.7535C25.2418 31.7535 25.0824 31.6991 25.0437 31.6326C25.0051 31.5661 24.9416 31.2176 24.9027 30.8583C24.8637 30.4989 24.779 30.1681 24.7144 30.1232C24.6417 30.0727 24.6707 29.963 24.7903 29.8356C24.8968 29.7223 24.9838 29.5779 24.9838 29.5146C24.9838 29.4514 25.0624 29.3996 25.1584 29.3996C25.2554 29.3996 25.333 29.5097 25.333 29.6474C25.333 29.785 25.4106 29.8952 25.5076 29.8952C25.6037 29.8952 25.6822 29.9509 25.6822 30.019C25.6822 30.0872 25.6009 30.1429 25.5015 30.1429C25.3567 30.1429 25.3278 30.272 25.356 30.7934C25.3798 31.2326 25.4385 31.4337 25.5367 31.4128C25.6167 31.3958 25.6822 31.4655 25.6822 31.5677C25.6822 31.6821 25.5731 31.7535 25.3981 31.7535ZM26.6566 31.7285C26.3206 31.7553 26.1399 31.7017 25.9963 31.5329C25.8859 31.403 25.7986 31.0996 25.7986 30.8456C25.7986 30.5559 25.8832 30.3007 26.0314 30.1429C26.1595 30.0067 26.4184 29.8952 26.6068 29.8952C26.8289 29.8952 27.0132 29.992 27.1306 30.1705C27.2303 30.3219 27.3118 30.5449 27.3118 30.6661C27.3118 30.8477 27.2099 30.8863 26.7298 30.8863C26.4097 30.8863 26.1478 30.9352 26.1478 30.995C26.1478 31.0548 26.2316 31.1777 26.334 31.2682C26.4364 31.3586 26.6769 31.42 26.8684 31.4044C27.1064 31.3851 27.2012 31.4261 27.1679 31.5339C27.1411 31.6206 26.911 31.7082 26.6566 31.7285ZM26.479 30.6385C26.7153 30.6385 26.8462 30.577 26.8462 30.4659C26.8462 30.371 26.7726 30.2633 26.6826 30.2265C26.5925 30.1897 26.4273 30.2674 26.3153 30.3991C26.1182 30.6309 26.1234 30.6385 26.479 30.6385ZM27.5977 31.7535C27.4491 31.7535 27.4239 31.5984 27.4522 30.8575L27.4864 29.9615L27.9229 29.9262C28.2501 29.8998 28.3594 29.938 28.3594 30.0789C28.3594 30.1822 28.2827 30.2668 28.1889 30.2668C28.0951 30.2668 27.9642 30.3747 27.8979 30.5065C27.8316 30.6383 27.7774 30.9728 27.7774 31.2498C27.7774 31.6213 27.7303 31.7535 27.5977 31.7535ZM28.7607 31.7535C28.6286 31.7535 28.5922 31.5528 28.5922 30.8243V29.8952H29.0578C29.3552 29.8952 29.5234 29.9517 29.5234 30.0516C29.5234 30.1377 29.4056 30.2631 29.2615 30.3304C29.0456 30.4312 28.9934 30.5669 28.9644 31.1031C28.9391 31.571 28.882 31.7535 28.7607 31.7535ZM30.3874 31.7239C30.1363 31.7417 29.8732 31.7138 29.8027 31.6619C29.7323 31.6101 29.61 31.437 29.5309 31.2774C29.4498 31.1134 29.4208 30.8439 29.4644 30.6579C29.5068 30.4769 29.6242 30.2312 29.7251 30.112C29.8261 29.9927 30.054 29.8952 30.2315 29.8952C30.4091 29.8952 30.6367 29.9828 30.7373 30.0898C30.8379 30.1969 30.9202 30.4199 30.9202 30.5854C30.9202 30.8594 30.8734 30.8863 30.3964 30.8863C30.018 30.8863 29.8726 30.9358 29.8726 31.0648C29.8726 31.163 29.9361 31.2851 30.0137 31.3361C30.0913 31.3872 30.332 31.4162 30.5487 31.4007C30.8261 31.3808 30.928 31.4196 30.8932 31.532C30.8661 31.6198 30.6385 31.7061 30.3874 31.7239ZM30.2218 30.6385C30.4139 30.6385 30.571 30.5896 30.571 30.5298C30.571 30.47 30.498 30.3566 30.4088 30.2777C30.2835 30.1671 30.2039 30.1797 30.0596 30.3333C29.9567 30.4428 29.8726 30.5562 29.8726 30.5854C29.8726 30.6146 30.0298 30.6385 30.2218 30.6385ZM31.444 31.7535C31.3043 31.7535 31.2694 31.5677 31.2694 30.8243C31.2694 30.081 31.3043 29.8952 31.444 29.8952C31.5837 29.8952 31.6186 30.081 31.6186 30.8243C31.6186 31.5677 31.5837 31.7535 31.444 31.7535ZM32.6745 31.7535C32.4142 31.7535 32.1385 31.6697 32.0345 31.559C31.934 31.452 31.8212 31.235 31.7839 31.0768C31.7466 30.9185 31.797 30.6226 31.8958 30.4191C31.9947 30.2156 32.1604 30.0144 32.264 29.9721C32.3677 29.9298 32.6053 29.8952 32.7921 29.8952C33.0274 29.8952 33.1318 29.9567 33.1318 30.0954C33.1318 30.2325 33.0607 30.2759 32.9065 30.233C32.7826 30.1985 32.5731 30.251 32.4409 30.3495C32.3088 30.448 32.2006 30.6562 32.2006 30.8122C32.2006 30.9681 32.2942 31.1858 32.4086 31.296C32.5345 31.4172 32.7183 31.468 32.8742 31.4246C33.0616 31.3725 33.1318 31.4075 33.1318 31.5532C33.1318 31.7037 33.0181 31.7535 32.6745 31.7535ZM33.5392 31.7535C33.3946 31.7535 33.3646 31.5195 33.3646 30.3907C33.3646 29.2619 33.3946 29.0279 33.5392 29.0279C33.6612 29.0279 33.7138 29.1587 33.7138 29.4615C33.7138 29.8737 33.7338 29.8952 34.1171 29.8952C34.3967 29.8952 34.5574 29.9687 34.6409 30.1348C34.7072 30.2666 34.7614 30.6888 34.7614 31.073C34.7614 31.6715 34.7322 31.7658 34.5577 31.7305C34.4017 31.699 34.3464 31.5447 34.3215 31.071C34.3036 30.7309 34.2651 30.3806 34.2359 30.2925C34.1959 30.1715 34.1255 30.165 33.9483 30.2658C33.7572 30.3747 33.7138 30.5246 33.7138 31.0765C33.7138 31.5957 33.6731 31.7535 33.5392 31.7535ZM37.2135 31.7535C36.8967 31.7535 36.7402 31.6989 36.7402 31.5883C36.7402 31.4975 36.7733 31.3879 36.8137 31.3449C36.8541 31.3019 36.9851 31.3224 37.1047 31.3906C37.2519 31.4744 37.3974 31.4716 37.555 31.3818C37.6831 31.3089 37.7878 31.1807 37.7878 31.097C37.7878 31.0133 37.5778 30.8066 37.3211 30.6378C37.0644 30.4689 36.8232 30.2261 36.7851 30.0982C36.7469 29.9703 36.7825 29.7329 36.864 29.5707C36.9852 29.3297 37.1046 29.2757 37.5165 29.2757C37.9032 29.2757 38.0206 29.3224 38.0206 29.476C38.0206 29.6184 37.95 29.6566 37.7766 29.6084C37.6424 29.571 37.459 29.5705 37.3692 29.6071C37.2793 29.6438 37.2058 29.7508 37.2058 29.8449C37.2058 29.9389 37.4153 30.1567 37.6714 30.3287C38.0679 30.5951 38.137 30.705 38.137 31.0693C38.137 31.3653 38.0677 31.5364 37.9119 31.6252C37.788 31.6957 37.4738 31.7535 37.2135 31.7535V31.7535ZM39.3233 31.7535C39.0834 31.7535 38.7708 31.6667 38.6285 31.5606C38.4355 31.4168 38.3698 31.2436 38.3698 30.8793C38.3698 30.5559 38.4485 30.3069 38.6026 30.1429C38.7467 29.9895 38.9906 29.8952 39.2428 29.8952C39.5404 29.8952 39.6502 29.9491 39.6502 30.0954C39.6502 30.2371 39.5796 30.2761 39.4088 30.2285C39.2588 30.1868 39.0824 30.2517 38.9432 30.3999C38.8199 30.5311 38.719 30.7468 38.719 30.8793C38.719 31.0117 38.8272 31.2006 38.9593 31.2992C39.0915 31.3977 39.2938 31.4521 39.4089 31.4201C39.531 31.3861 39.6475 31.4434 39.6887 31.5577C39.7453 31.7147 39.6729 31.7535 39.3233 31.7535ZM40.0576 31.7535C39.913 31.7535 39.883 31.5195 39.883 30.3907C39.883 29.2619 39.913 29.0279 40.0576 29.0279C40.1824 29.0279 40.2322 29.1632 40.2322 29.502C40.2322 29.9587 40.2451 29.9741 40.5825 29.9214C40.7751 29.8913 41.0108 29.9357 41.1063 30.02C41.2269 30.1265 41.2798 30.4144 41.2798 30.9634C41.2798 31.5831 41.2422 31.7535 41.1052 31.7535C40.972 31.7535 40.9306 31.598 40.9306 31.0969C40.9306 30.7358 40.8685 30.3741 40.7925 30.2933C40.686 30.1799 40.6062 30.1928 40.4433 30.3497C40.2948 30.4927 40.2322 30.7309 40.2322 31.1533C40.2322 31.6042 40.1888 31.7535 40.0576 31.7535ZM42.1036 31.7535C41.9372 31.7535 41.8235 31.5653 41.6397 30.9861C41.5058 30.564 41.3962 30.1459 41.3962 30.0569C41.3962 29.968 41.475 29.8952 41.5713 29.8952C41.68 29.8952 41.7986 30.1035 41.8845 30.4453C41.9606 30.7479 42.0637 30.9685 42.1137 30.9356C42.1638 30.9027 42.2605 30.6552 42.3287 30.3855C42.4171 30.0363 42.5154 29.8952 42.6703 29.8952C42.8345 29.8952 42.9252 30.0502 43.04 30.5268L43.1921 31.1585L43.3808 30.5578C43.4939 30.1978 43.649 29.9407 43.7679 29.9161C43.9294 29.8827 43.9516 29.9367 43.8879 30.2069C43.8449 30.3894 43.7225 30.7981 43.6159 31.1151C43.4767 31.5294 43.3593 31.6916 43.1986 31.6916C43.0406 31.6916 42.9398 31.5583 42.8549 31.2371C42.7889 30.9872 42.7022 30.7481 42.6624 30.7058C42.6226 30.6636 42.5302 30.882 42.4571 31.1913C42.3579 31.6106 42.268 31.7535 42.1036 31.7535ZM44.8149 31.7285C44.479 31.7553 44.2983 31.7017 44.1547 31.5329C44.046 31.405 43.957 31.1081 43.957 30.8731C43.957 30.6381 44.0385 30.3219 44.1382 30.1705C44.2648 29.9781 44.4382 29.8952 44.7136 29.8952C44.989 29.8952 45.1624 29.9781 45.289 30.1705C45.3887 30.3219 45.4702 30.5449 45.4702 30.6661C45.4702 30.8477 45.3683 30.8863 44.8882 30.8863C44.5681 30.8863 44.3062 30.9352 44.3062 30.995C44.3062 31.0548 44.39 31.1777 44.4924 31.2682C44.5948 31.3586 44.8353 31.42 45.0268 31.4044C45.2648 31.3851 45.3596 31.4261 45.3262 31.5339C45.2994 31.6206 45.0694 31.7082 44.8149 31.7285ZM44.6374 30.6385C44.8393 30.6385 45.0046 30.5896 45.0046 30.5298C45.0046 30.47 44.934 30.3587 44.8477 30.2824C44.7279 30.1767 44.6409 30.2024 44.4804 30.3912C44.2745 30.6334 44.2777 30.6385 44.6374 30.6385ZM45.8776 31.7535C45.7379 31.7535 45.703 31.5677 45.703 30.8243C45.703 30.081 45.7379 29.8952 45.8776 29.8952C46.0173 29.8952 46.0522 30.081 46.0522 30.8243C46.0522 31.5677 46.0173 31.7535 45.8776 31.7535ZM46.9252 31.7535C46.4639 31.7535 46.285 31.7066 46.285 31.5855C46.285 31.4931 46.4683 31.1619 46.6924 30.8496C46.9165 30.5372 47.0998 30.2505 47.0998 30.2123C47.0998 30.1742 46.9165 30.1429 46.6924 30.1429C46.4683 30.1429 46.285 30.0872 46.285 30.019C46.285 29.9509 46.5731 29.8952 46.9252 29.8952C47.4337 29.8952 47.5654 29.9358 47.5654 30.0928C47.5654 30.2016 47.4493 30.4664 47.3073 30.6813C47.1654 30.8963 46.9721 31.1557 46.8779 31.2579C46.7262 31.4224 46.7558 31.4482 47.136 31.4822C47.3722 31.5034 47.5654 31.5731 47.5654 31.6371C47.5654 31.7011 47.2773 31.7535 46.9252 31.7535ZM31.4149 29.6165C31.3296 29.6467 31.2694 29.5613 31.2694 29.4099C31.2694 29.2577 31.3446 29.1518 31.4526 29.1518C31.5609 29.1518 31.6203 29.2361 31.5981 29.3584C31.5774 29.472 31.4949 29.5881 31.4149 29.6165ZM45.8776 29.6474C45.7806 29.6474 45.703 29.5373 45.703 29.3996C45.703 29.2619 45.7806 29.1518 45.8776 29.1518C45.9746 29.1518 46.0522 29.2619 46.0522 29.3996C46.0522 29.5373 45.9746 29.6474 45.8776 29.6474ZM22.0156 29.1518C21.9196 29.1518 21.841 29.0682 21.841 28.966C21.841 28.8638 21.9196 28.7801 22.0156 28.7801C22.1117 28.7801 22.1902 28.8638 22.1902 28.966C22.1902 29.0682 22.1117 29.1518 22.0156 29.1518ZM22.5297 29.1518C22.3875 29.1518 22.3073 29.0878 22.3357 28.997C22.3623 28.9118 22.4714 28.8241 22.5782 28.802C22.693 28.7783 22.7722 28.8415 22.7722 28.9569C22.7722 29.0718 22.6727 29.1518 22.5297 29.1518ZM18.5818 26.7395C17.6535 26.765 16.6583 26.7382 16.3702 26.68C16.0821 26.6218 15.5845 26.4795 15.2644 26.3637C14.9443 26.248 14.3682 25.9787 13.984 25.7652C13.5706 25.5355 12.9277 24.9946 12.4086 24.4397C11.7909 23.7796 11.3901 23.2112 11.053 22.5175C10.7897 21.9758 10.4912 21.2684 10.3895 20.9455C10.2879 20.6226 10.1253 19.9536 10.0284 19.4588C9.92157 18.914 9.85199 17.9026 9.85194 16.8942C9.85188 15.9784 9.91166 14.8913 9.98478 14.4783C10.0579 14.0654 10.2216 13.393 10.3487 12.9842C10.4757 12.5754 10.6318 12.1712 10.6956 12.086C10.7871 11.9638 10.5136 11.9311 9.40049 11.9311H7.98944V19.1787V26.4262H5.37044H2.75145V19.1787V11.9311H1.70385H0.65625V9.70112V7.4711H1.70385H2.75145L2.75159 6.26318C2.75166 5.59882 2.82278 4.665 2.90963 4.18802C2.99647 3.71105 3.15608 3.09779 3.26432 2.82523C3.37255 2.55268 3.7481 2.04034 4.09886 1.6867C4.44963 1.33307 5.01018 0.901446 5.34453 0.727535C5.67889 0.553625 6.26627 0.324473 6.64984 0.218309C7.13963 0.0827453 7.89104 0.0258306 9.17399 0.027121C10.1787 0.0281369 11.1363 0.0651635 11.3019 0.109414L11.6031 0.18987L11.5714 2.36664L11.5396 4.54341L10.2592 4.51756C9.39122 4.50004 8.88512 4.54367 8.68784 4.65303C8.52779 4.74175 8.30769 5.00793 8.19873 5.24452C8.06991 5.52424 7.99867 5.98885 7.99503 6.5729L7.98944 7.4711H9.56084H11.1322V9.28532V11.0995L11.5566 10.4932C11.7901 10.1598 12.2926 9.56988 12.6734 9.18235C13.0672 8.78152 13.7499 8.26847 14.2569 7.99234C14.747 7.72537 15.4099 7.42919 15.73 7.33416C16.1166 7.21939 16.9373 7.16138 18.1744 7.16138C19.3526 7.16138 20.272 7.22325 20.677 7.32977C21.0291 7.42239 21.6839 7.68463 22.132 7.91252C22.5802 8.14042 23.2393 8.57386 23.5967 8.87572C23.9542 9.17758 24.5168 9.80735 24.8471 10.2752C25.1773 10.7431 25.5758 11.4046 25.7325 11.7453C25.8892 12.086 26.0792 12.532 26.1546 12.7364C26.23 12.9408 26.3408 13.3032 26.4008 13.5417C26.4608 13.7802 26.5846 14.3934 26.6758 14.9045C26.767 15.4155 26.8426 16.3354 26.8438 16.9487C26.8449 17.5619 26.7717 18.5097 26.681 19.0548C26.5904 19.5999 26.4283 20.3247 26.3209 20.6654C26.2135 21.0061 25.9694 21.6156 25.7785 22.0198C25.5876 22.424 25.2836 22.9834 25.1029 23.2629C24.9222 23.5424 24.4148 24.1315 23.9752 24.5721C23.5356 25.0127 22.8624 25.5493 22.4794 25.7645C22.0963 25.9797 21.4424 26.2767 21.0262 26.4245C20.4266 26.6375 19.9195 26.7028 18.5818 26.7395ZM18.2582 22.8262C18.8407 22.8316 19.1489 22.7685 19.4657 22.5791C19.6997 22.4393 19.9518 22.2581 20.026 22.1765C20.1002 22.0949 20.2673 21.8609 20.3973 21.6565C20.5273 21.4521 20.6929 21.0618 20.7654 20.7893C20.8378 20.5167 20.9523 20.0321 21.0199 19.7123C21.0874 19.3925 21.1426 18.1827 21.1426 17.0238C21.1426 15.8649 21.0885 14.6213 21.0224 14.2602C20.9563 13.8991 20.8415 13.3806 20.7673 13.1081C20.6931 12.8355 20.4864 12.3811 20.3078 12.0983C20.1062 11.7788 19.7804 11.4794 19.4477 11.308C19.0032 11.079 18.7772 11.0423 18.1187 11.0925C17.5383 11.1367 17.2204 11.2312 16.935 11.4446C16.7204 11.605 16.4811 11.8219 16.4032 11.9266C16.3253 12.0313 16.1745 12.3078 16.0681 12.5411C15.9617 12.7743 15.7962 13.3039 15.7005 13.718C15.5758 14.2574 15.5268 15.1558 15.5279 16.8867C15.529 18.5956 15.5799 19.5229 15.702 20.0554C15.7969 20.4695 15.9705 21.027 16.0876 21.2943C16.2048 21.5617 16.4616 21.9476 16.6583 22.152C16.8551 22.3565 17.1195 22.5901 17.246 22.6713C17.3725 22.7525 17.828 22.8221 18.2582 22.8262ZM32.4916 26.7468C31.6594 26.7677 30.7951 26.7409 30.571 26.6873C30.347 26.6338 29.9569 26.4956 29.7043 26.3804C29.4517 26.2651 29.0694 26.0283 28.8548 25.8541C28.6403 25.6799 28.2771 25.2367 28.0478 24.8691C27.8186 24.5016 27.5236 23.8235 27.3924 23.3623C27.1656 22.5652 27.1515 22.1512 27.1077 14.9974L27.0616 7.4711H29.6893H32.317V13.9707C32.317 20.1709 32.3278 20.5008 32.5503 21.1337C32.7341 21.6568 32.8792 21.8544 33.2354 22.0675C33.4862 22.2175 33.8875 22.337 34.1371 22.336C34.3844 22.335 34.7962 22.2566 35.0522 22.1618C35.3081 22.067 35.7144 21.8135 35.955 21.5985C36.1956 21.3835 36.4838 21.0298 36.5954 20.8126C36.7788 20.4557 36.804 19.7961 36.8566 13.9753L36.9148 7.53305L39.6211 7.49979L42.3274 7.46653V16.9464V26.4262H39.8287H37.3301L37.2971 25.0944L37.264 23.7626L37.0642 24.2061C36.9544 24.4501 36.6106 24.9239 36.3004 25.2592C35.9902 25.5944 35.5039 25.9871 35.2198 26.1318C34.9357 26.2765 34.5461 26.4656 34.354 26.5519C34.1514 26.643 33.3697 26.7248 32.4916 26.7468ZM65.9005 26.7474C65.1951 26.7684 64.428 26.7425 64.1958 26.6898C63.9635 26.6372 63.471 26.4366 63.1012 26.244C62.7313 26.0514 62.1563 25.6095 61.8233 25.2619C61.4903 24.9143 61.0646 24.379 60.8773 24.0724C60.6901 23.7658 60.4743 23.3755 60.3978 23.2052C60.3214 23.0348 60.1296 22.4772 59.9717 21.9661C59.8138 21.455 59.603 20.4556 59.5032 19.7452C59.4034 19.0348 59.3218 17.8314 59.3218 17.0709C59.3218 16.3104 59.3959 15.1634 59.4866 14.522C59.5772 13.8806 59.6872 13.1886 59.7309 12.9842C59.7747 12.7798 59.9162 12.278 60.0454 11.8692C60.1745 11.4604 60.4443 10.7928 60.6449 10.3858C60.8455 9.97881 61.3052 9.30981 61.6665 8.89915C62.045 8.46892 62.5877 8.01337 62.9469 7.8242C63.2898 7.64364 63.7275 7.43405 63.9196 7.35844C64.1116 7.28284 64.6616 7.1789 65.1418 7.12746C65.6219 7.07603 66.3725 7.07803 66.8098 7.1319C67.2602 7.1874 67.9161 7.38182 68.323 7.58045C68.718 7.77328 69.29 8.1668 69.5941 8.45494L70.147 8.97884V4.94189V0.904941H72.766H75.385V13.6656V26.4262H72.8824H70.3798L70.3785 25.2183L70.3772 24.0104L70.0646 24.444C69.8927 24.6825 69.514 25.1152 69.2231 25.4056C68.9321 25.696 68.3541 26.1081 67.9385 26.3214C67.2558 26.6719 67.0593 26.7129 65.9005 26.7474L65.9005 26.7474ZM67.7267 22.6628C68.1699 22.6277 68.5185 22.5153 68.7743 22.3251C68.9851 22.1683 69.2538 21.9258 69.3714 21.7863C69.489 21.6468 69.6985 21.2818 69.837 20.9752C70.0723 20.4542 70.091 20.2034 70.1234 17.1504C70.1557 14.1012 70.1415 13.8284 69.9105 13.0621C69.7744 12.6104 69.5231 12.0826 69.3521 11.8892C69.1811 11.6957 68.8997 11.4588 68.7269 11.3626C68.554 11.2665 68.1087 11.1881 67.7375 11.1883C67.2539 11.1887 66.9468 11.2637 66.655 11.453C66.4309 11.5983 66.149 11.8351 66.0285 11.9791C65.9079 12.1231 65.6928 12.5197 65.5503 12.8604C65.4079 13.2011 65.2189 13.7864 65.1303 14.1612C65.0223 14.6183 64.9689 15.5972 64.9682 17.1346C64.9675 18.6678 65.019 19.6316 65.1237 20.046C65.2098 20.3867 65.3835 20.8925 65.5097 21.1701C65.636 21.4476 65.8591 21.8232 66.0057 22.0048C66.1523 22.1863 66.45 22.4205 66.6673 22.5251C66.9305 22.6519 67.2841 22.6978 67.7267 22.6628ZM84.7552 26.736C83.7949 26.7589 82.852 26.7539 82.66 26.7249C82.4679 26.696 82.1012 26.614 81.8452 26.5428C81.5891 26.4716 81.0915 26.2947 80.7394 26.1497C80.3873 26.0047 79.8111 25.6804 79.459 25.4289C79.1069 25.1774 78.6027 24.7482 78.3385 24.4751C78.0744 24.2021 77.6471 23.6791 77.389 23.3131C77.1309 22.9471 76.7613 22.3131 76.5676 21.9043C76.374 21.4954 76.0974 20.7149 75.9529 20.1698C75.7265 19.3154 75.6907 18.8882 75.6928 17.0726C75.6949 15.2843 75.7342 14.8169 75.9532 13.9753C76.0951 13.4302 76.3625 12.6369 76.5474 12.2124C76.7324 11.7879 77.0522 11.18 77.2581 10.8615C77.464 10.543 77.9259 9.97043 78.2847 9.58912C78.6434 9.20781 79.2246 8.69477 79.5762 8.44904C79.9279 8.2033 80.558 7.85782 80.9766 7.6813C81.3951 7.50478 82.0993 7.29886 82.5413 7.2237C82.9834 7.14854 83.7671 7.08874 84.2829 7.09082C84.7987 7.09289 85.5089 7.14678 85.861 7.21056C86.2131 7.27434 86.7547 7.41873 87.0646 7.53143C87.3745 7.64413 87.8721 7.87947 88.1704 8.05442C88.4687 8.22937 88.9485 8.5558 89.2366 8.77982C89.5246 9.00384 89.9763 9.42822 90.2402 9.72288C90.5041 10.0175 90.9083 10.5618 91.1384 10.9323C91.3686 11.3028 91.6842 11.9997 91.8399 12.4809C91.9956 12.9621 92.1767 13.5789 92.2423 13.8514C92.308 14.124 92.418 14.7158 92.4869 15.1666C92.5558 15.6173 92.6122 16.4396 92.6122 16.9939V18.0017H86.9668H81.3214L81.3231 18.838C81.3241 19.2979 81.3896 19.9024 81.4686 20.1813C81.5477 20.4603 81.762 20.9399 81.9449 21.2472C82.1553 21.6007 82.517 21.9606 82.9298 22.2268C83.5365 22.6182 83.6515 22.6476 84.576 22.6476C85.2867 22.6476 85.6923 22.5852 85.9991 22.4287C86.2351 22.3083 86.6082 21.986 86.8282 21.7124C87.0482 21.4388 87.3183 20.9101 87.4284 20.5375C87.5902 19.9902 87.6769 19.8606 87.8797 19.8626C88.0178 19.864 88.9165 19.9183 89.8768 19.9832C90.8371 20.0481 91.8222 20.1361 92.066 20.1786C92.4921 20.253 92.5062 20.2709 92.4295 20.6424C92.3856 20.855 92.3072 21.1144 92.2552 21.2188C92.2031 21.3232 91.9947 21.7711 91.7921 22.214C91.5894 22.6569 91.2439 23.2803 91.0244 23.5993C90.8048 23.9183 90.348 24.449 90.0092 24.7786C89.6703 25.1082 89.0829 25.5529 88.7037 25.7668C88.3246 25.9808 87.6739 26.277 87.2578 26.4251C86.6471 26.6424 86.1645 26.7024 84.7552 26.736L84.7552 26.736ZM84.3058 14.5328H87.2902L87.2185 13.8824C87.179 13.5247 87.0009 12.9275 86.8225 12.5554C86.613 12.1183 86.3202 11.7455 85.9951 11.5023C85.5284 11.1531 85.4189 11.1259 84.4834 11.1259C83.7779 11.1259 83.3523 11.1884 83.0674 11.3341C82.8433 11.4486 82.5219 11.6994 82.3532 11.8916C82.1844 12.0837 81.9536 12.436 81.8403 12.6745C81.727 12.913 81.5645 13.3868 81.4792 13.7275C81.3939 14.0682 81.3235 14.3888 81.3227 14.4399C81.3219 14.491 82.6643 14.5328 84.3058 14.5328ZM109.025 26.736C107.904 26.7609 106.857 26.7565 106.697 26.7263C106.536 26.6961 106.091 26.6064 105.707 26.5271C105.323 26.4477 104.646 26.2244 104.202 26.0308C103.759 25.8373 103.209 25.5308 102.98 25.3498C102.752 25.1689 102.321 24.7534 102.024 24.4265C101.727 24.0997 101.328 23.4821 101.136 23.0541C100.944 22.6261 100.729 22.12 100.657 21.9294C100.586 21.7388 100.527 21.4765 100.527 21.3466C100.527 21.177 100.634 21.0902 100.906 21.0395C101.114 21.0006 101.808 20.8831 102.448 20.7784C103.088 20.6737 103.926 20.5604 104.31 20.5268L105.009 20.4655L105.284 21.1013C105.456 21.4988 105.73 21.8692 106.016 22.0894C106.267 22.2832 106.751 22.535 107.092 22.649C107.556 22.8045 108.028 22.8457 108.979 22.8139C110.049 22.7781 110.335 22.7237 110.81 22.4652C111.12 22.2967 111.474 22.0094 111.596 21.8266C111.718 21.6439 111.818 21.3277 111.818 21.1239C111.818 20.889 111.699 20.6173 111.491 20.3812C111.312 20.1763 110.958 19.9453 110.706 19.8676C110.453 19.79 109.828 19.675 109.316 19.6122C108.803 19.5493 108.096 19.445 107.744 19.3805C107.392 19.3159 106.633 19.142 106.056 18.9939C105.48 18.8459 104.616 18.5515 104.136 18.3397C103.547 18.08 103.06 17.7505 102.64 17.3285C102.297 16.9843 101.918 16.4983 101.799 16.2487C101.679 15.999 101.502 15.5526 101.405 15.2567C101.308 14.9608 101.228 14.3145 101.227 13.8205C101.226 13.1026 101.19 12.9223 101.05 12.9223C100.953 12.9223 100.647 13.0356 100.371 13.1741C100.094 13.3126 99.7051 13.6053 99.5069 13.8245C99.3088 14.0437 99.0094 14.5157 98.8416 14.8734C98.6738 15.231 98.4615 15.9 98.3699 16.36C98.2428 16.9987 98.2029 18.2877 98.2014 21.8114L98.1993 26.4262H95.5803H92.9613V16.9487V7.4711H95.4057H97.8501L97.8561 8.92681L97.8621 10.3825L98.0499 9.88695C98.1532 9.6144 98.4233 9.08937 98.6502 8.72022C98.877 8.35107 99.2909 7.87719 99.5699 7.66715C99.8488 7.45712 100.244 7.21982 100.448 7.13983C100.652 7.05984 101.222 6.99015 101.716 6.98497L102.614 6.97554L102.647 8.08784L102.681 9.20014L103.205 8.75185C103.493 8.50529 104.095 8.12322 104.543 7.90282C104.991 7.68241 105.62 7.43886 105.94 7.36159C106.26 7.28432 107.005 7.17757 107.597 7.12438C108.188 7.07119 109.183 7.07319 109.808 7.12882C110.433 7.18444 111.26 7.33634 111.644 7.46635C112.029 7.59637 112.597 7.85356 112.907 8.03789C113.217 8.22223 113.693 8.60217 113.965 8.88222C114.237 9.16227 114.615 9.64227 114.805 9.9489C114.995 10.2555 115.291 10.8186 115.463 11.2001C115.635 11.5817 115.776 11.9537 115.776 12.0268C115.776 12.0999 115.605 12.2137 115.397 12.2797C115.189 12.3457 114.574 12.523 114.03 12.6736C113.486 12.8242 112.888 12.9975 112.703 13.0588C112.517 13.12 112.25 13.17 112.11 13.17C111.925 13.17 111.78 13.016 111.583 12.6072C111.433 12.2977 111.177 11.9018 111.013 11.7275C110.849 11.5533 110.505 11.2908 110.248 11.1444C109.847 10.9158 109.592 10.8783 108.443 10.8798C107.41 10.8811 107.021 10.9293 106.743 11.0903C106.544 11.2051 106.296 11.4393 106.19 11.6107C106.084 11.7822 105.998 12.089 105.998 12.2926C105.998 12.4962 106.056 12.7987 106.127 12.9648C106.198 13.1308 106.369 13.3247 106.506 13.3956C106.643 13.4665 106.938 13.58 107.162 13.648C107.386 13.7159 107.936 13.8294 108.384 13.9001C108.832 13.9708 109.618 14.0908 110.13 14.1668C110.642 14.2427 111.323 14.3624 111.644 14.4328C111.964 14.5031 112.346 14.6102 112.493 14.6707C112.64 14.7311 112.842 14.7806 112.942 14.7806C113.042 14.7806 113.445 14.9441 113.838 15.1439C114.232 15.3438 114.806 15.7758 115.114 16.1041C115.423 16.4323 115.822 17.0354 116.003 17.4442C116.185 17.8581 116.394 18.6373 116.473 19.2023C116.583 19.9803 116.586 20.4138 116.484 21.0606C116.41 21.5246 116.294 22.0715 116.226 22.2759C116.157 22.4804 115.988 22.8959 115.851 23.1993C115.714 23.5027 115.332 24.0602 115.004 24.4382C114.675 24.8161 114.073 25.336 113.665 25.5934C113.258 25.8508 112.505 26.203 111.993 26.3762C111.175 26.6524 110.812 26.6965 109.024 26.736H109.025ZM46.2268 26.4262H43.4914V16.9463V7.46627L46.0231 7.49966L48.5548 7.53305L48.588 8.80738C48.6142 9.81288 48.6511 10.0481 48.7626 9.92239C48.8404 9.83476 49.0558 9.52515 49.2413 9.23438C49.4269 8.9436 49.7871 8.50525 50.0419 8.26027C50.2967 8.01529 50.7472 7.69802 51.0431 7.55523C51.3391 7.41244 51.9715 7.23582 52.4485 7.16275C52.9634 7.08386 53.687 7.06809 54.2298 7.12393C54.7325 7.17565 55.3898 7.30646 55.6905 7.41461C55.9912 7.52276 56.4846 7.77966 56.7869 7.98551C57.0892 8.19135 57.4948 8.55162 57.6883 8.78611C57.8817 9.0206 58.1483 9.43841 58.2806 9.71459C58.413 9.99077 58.6229 10.6393 58.747 11.1557C58.9574 12.0316 58.9726 12.5761 58.9726 19.2605V26.4262H56.2954H53.6182V20.1008C53.6182 15.9911 53.5743 13.5896 53.4928 13.2452C53.4238 12.9536 53.2536 12.5774 53.1145 12.4091C52.9754 12.2409 52.7321 12.0087 52.5738 11.8933C52.375 11.7483 52.0491 11.6834 51.5199 11.6834C50.8753 11.6834 50.6697 11.7401 50.224 12.041C49.8731 12.2778 49.6104 12.5826 49.4463 12.9435C49.31 13.2432 49.1453 13.7868 49.0803 14.1514C49.011 14.5407 48.9622 17.211 48.9622 20.6203V26.4262H46.2268ZM92.5325 5.11673C92.1824 5.11645 91.8323 5.02564 91.6 4.87487C91.3954 4.7421 91.1369 4.48543 91.0255 4.30449C90.884 4.07462 90.8251 3.73755 90.8299 3.18556C90.8345 2.66502 90.9036 2.28727 91.0325 2.07797C91.14 1.90327 91.3954 1.65171 91.6 1.51894C91.8046 1.38617 92.1606 1.27733 92.3911 1.27707C92.6216 1.27681 92.9775 1.3387 93.1821 1.41458C93.3866 1.49047 93.5343 1.61591 93.5103 1.69333C93.4852 1.77407 93.1421 1.84958 92.7058 1.87037C92.0893 1.89975 91.8974 1.96061 91.6938 2.19123C91.5556 2.34776 91.3977 2.64236 91.3429 2.8459C91.2774 3.0888 91.2947 3.37539 91.393 3.67989C91.4754 3.93505 91.6394 4.22012 91.7574 4.31339C91.8754 4.40665 92.1665 4.51871 92.4042 4.56242C92.6419 4.60612 92.8907 4.60616 92.9571 4.5625C93.0235 4.51884 93.0778 4.23554 93.0778 3.93293C93.0778 3.4042 93.0641 3.38274 92.7286 3.38274C92.4958 3.38274 92.3794 3.32079 92.3794 3.1969C92.3794 3.05649 92.5216 3.01107 92.9614 3.01107H93.5434V3.93588C93.5434 4.72342 93.5099 4.87973 93.3182 4.98895C93.1944 5.05948 92.8408 5.11699 92.5325 5.11673ZM81.2009 4.99331C80.984 4.99331 80.9722 4.90005 80.9722 3.1969V1.4005H81.2489C81.4011 1.4005 81.5763 1.47019 81.6381 1.55536C81.7 1.64054 81.947 2.23985 82.1869 2.88718C82.4269 3.5345 82.6391 4.08154 82.6585 4.10283C82.678 4.12411 82.7779 3.96223 82.8806 3.7431C82.9833 3.52396 83.0674 3.30119 83.0674 3.24804C83.0674 3.1949 83.2338 2.75746 83.4372 2.27596C83.7688 1.491 83.841 1.4005 84.1356 1.4005H84.4642V3.1969C84.4642 4.91071 84.4535 4.99331 84.2314 4.99331C84.0127 4.99331 83.9982 4.90876 83.993 3.59955L83.9875 2.20578L83.4571 3.59955C83.0127 4.76748 82.8863 4.99331 82.6768 4.99331C82.4675 4.99331 82.3508 4.78611 81.9614 3.72343L81.496 2.45356L81.4628 3.72343C81.4323 4.8912 81.4112 4.99331 81.2009 4.99331ZM86.2496 4.99331C86.0892 4.99331 85.9754 4.94899 85.9968 4.89482C86.0181 4.84066 86.318 4.05535 86.6633 3.14968C87.0086 2.24402 87.3692 1.47108 87.4648 1.43204C87.5604 1.39301 87.7143 1.41188 87.8068 1.47399C87.8993 1.5361 88.2578 2.33941 88.6034 3.25914C88.9491 4.17886 89.2329 4.949 89.2342 4.97056C89.2355 4.99212 89.093 4.99212 88.9175 4.97056C88.707 4.94471 88.5838 4.84701 88.5557 4.68358C88.5323 4.5473 88.4599 4.36611 88.395 4.28094C88.3231 4.18674 87.9896 4.12608 87.5435 4.12608H86.8102L86.6758 4.55969C86.5697 4.90181 86.4798 4.99331 86.2496 4.99331ZM87.607 3.63052H88.1856L87.9447 2.9801C87.8122 2.62236 87.6821 2.30645 87.6554 2.27805C87.6288 2.24966 87.5852 2.24966 87.5585 2.27805C87.5319 2.30645 87.4017 2.62236 87.2692 2.9801L87.0284 3.63052H87.607ZM95.4452 4.99331C95.2848 4.99331 95.171 4.95028 95.1923 4.8977C95.2137 4.84512 95.5192 4.03719 95.8714 3.1023C96.4122 1.6662 96.55 1.40234 96.7592 1.4015C96.8954 1.40095 97.0599 1.47019 97.1248 1.55536C97.1897 1.64054 97.3309 1.98898 97.4385 2.32967C97.5461 2.67037 97.7131 3.14425 97.8095 3.38274C97.9059 3.62123 98.0854 4.05478 98.2084 4.3462C98.3315 4.63761 98.4322 4.90613 98.4322 4.9429C98.4322 4.97968 98.2886 4.99212 98.113 4.97056C97.9026 4.94471 97.7794 4.84701 97.7513 4.68358C97.7279 4.5473 97.6555 4.36611 97.5906 4.28094C97.5187 4.18674 97.1852 4.12608 96.7391 4.12608H96.0058L95.8714 4.55969C95.7653 4.90181 95.6754 4.99331 95.4452 4.99331ZM96.7978 3.63052H97.3717L97.1243 2.9801C96.9883 2.62236 96.8602 2.30645 96.8398 2.27805C96.8193 2.24966 96.7807 2.24966 96.7541 2.27805C96.7274 2.30645 96.5973 2.62236 96.4648 2.9801L96.2239 3.63052H96.7978ZM100.877 4.99331C99.9314 4.99331 99.7125 4.95915 99.7125 4.81167C99.7125 4.71178 99.8008 4.43302 99.9087 4.19222C100.017 3.95142 100.148 3.75441 100.2 3.75441C100.252 3.75441 100.295 3.6956 100.295 3.62372C100.295 3.55184 100.504 3.16465 100.76 2.76329C101.016 2.36193 101.226 2.00261 101.226 1.9648C101.226 1.92699 100.885 1.89606 100.469 1.89606C99.7901 1.89606 99.7125 1.87065 99.7125 1.64828C99.7125 1.41789 99.7901 1.4005 100.818 1.4005C101.762 1.4005 101.924 1.43001 101.924 1.60224C101.924 1.71319 101.584 2.38124 101.168 3.08678C100.751 3.79233 100.411 4.39842 100.411 4.43367C100.411 4.46891 100.778 4.49775 101.226 4.49775C101.963 4.49775 102.041 4.52134 102.041 4.74553C102.041 4.97679 101.963 4.99331 100.877 4.99331ZM103.845 4.99331H103.554V3.1969V1.4005H103.845H104.136V3.1969V4.99331H103.845ZM106.173 4.99331H105.882V3.18905V1.3848L106.238 1.42362C106.532 1.45561 106.65 1.5715 106.908 2.08189C107.08 2.42259 107.247 2.72922 107.279 2.76329C107.311 2.79736 107.462 3.07611 107.615 3.38274C107.769 3.68936 107.939 3.9932 107.994 4.05794C108.05 4.12405 108.093 3.56751 108.093 2.78807C108.093 1.48309 108.107 1.4005 108.326 1.4005C108.548 1.4005 108.559 1.48309 108.559 3.1969V4.99331H108.235C107.945 4.99331 107.834 4.85152 107.188 3.66149L106.465 2.32967L106.464 3.66149L106.464 4.99331H106.173ZM28.0248 4.7427C27.7927 4.74115 27.4457 4.65695 27.2536 4.55558C27.0616 4.45422 26.8128 4.20009 26.7007 3.99086C26.5818 3.76871 26.497 3.35351 26.497 2.99288C26.497 2.65323 26.5576 2.25356 26.6317 2.10472C26.7058 1.95589 26.9022 1.70874 27.0682 1.55551C27.3214 1.32184 27.5061 1.27689 28.2139 1.27676C28.9717 1.27663 29.0578 1.30115 29.0578 1.51708C29.0578 1.64934 29.0091 1.78962 28.9495 1.82882C28.8899 1.86803 28.8082 1.84344 28.768 1.77419C28.7278 1.70494 28.4754 1.64835 28.2071 1.64843C27.8522 1.64854 27.6252 1.73465 27.3742 1.96441C27.0709 2.24205 27.0291 2.36122 27.0291 2.95011C27.0291 3.4785 27.0857 3.684 27.2967 3.92315C27.4439 4.0899 27.7362 4.26064 27.9463 4.30259C28.1563 4.34453 28.4138 4.34388 28.5184 4.30115C28.6545 4.24557 28.7086 4.06857 28.7086 3.67921C28.7086 3.15708 28.6944 3.13496 28.3594 3.13496C28.1266 3.13496 28.0102 3.07301 28.0102 2.94912C28.0102 2.80871 28.1525 2.76329 28.5922 2.76329H29.1742V3.67698V4.59066L28.8105 4.66809C28.6104 4.71068 28.2568 4.74426 28.0248 4.7427ZM34.936 4.74201C34.744 4.74194 34.4569 4.67191 34.2981 4.5864C34.1393 4.50089 33.9437 4.29264 33.8633 4.12364C33.7748 3.93752 33.7166 3.31563 33.7155 2.54648C33.7139 1.3586 33.7288 1.27661 33.9466 1.27661C34.1637 1.27661 34.1794 1.3592 34.1794 2.50178C34.1794 3.4996 34.2185 3.77836 34.3901 4.00395C34.52 4.1746 34.7295 4.28094 34.936 4.28094C35.1425 4.28094 35.352 4.1746 35.4819 4.00395C35.6535 3.77836 35.6926 3.4996 35.6926 2.50178C35.6926 1.3592 35.7083 1.27661 35.9254 1.27661C36.1428 1.27661 36.1582 1.3592 36.1582 2.52776C36.1582 3.40698 36.104 3.90051 35.9758 4.18799C35.8755 4.41298 35.6791 4.62971 35.5393 4.66961C35.3996 4.7095 35.1281 4.74208 34.936 4.74201V4.74201ZM17.0285 4.62164H16.2538V2.94912V1.27661L17.0977 1.27676C17.8135 1.27688 17.9895 1.32074 18.2569 1.56552C18.4389 1.73213 18.6326 2.09449 18.7151 2.42278C18.8314 2.88578 18.8282 3.08751 18.6976 3.50859C18.6044 3.80921 18.3836 4.15051 18.1703 4.3237C17.8676 4.56939 17.6674 4.62164 17.0285 4.62164ZM17.1009 4.24997C17.3108 4.24997 17.5991 4.16296 17.7418 4.05661C17.8844 3.95027 18.0841 3.69262 18.1854 3.48406C18.309 3.22974 18.3446 2.96258 18.2935 2.67284C18.2516 2.43522 18.0822 2.10749 17.917 1.94455C17.7083 1.73866 17.4798 1.64828 17.168 1.64828H16.7194V2.94912V4.24997H17.1009ZM20.2114 4.62164C19.9901 4.62164 19.9786 4.53904 19.9786 2.94912C19.9786 1.3592 19.9901 1.27661 20.2114 1.27661C20.4327 1.27661 20.4442 1.3592 20.4442 2.94912C20.4442 4.53904 20.4327 4.62164 20.2114 4.62164ZM22.5394 4.62164H21.6082V2.94912V1.27661H22.4812C23.1796 1.27661 23.3542 1.31378 23.3542 1.46245C23.3542 1.60285 23.212 1.64828 22.7722 1.64828H22.1902V2.20578V2.76329H22.7722C23.212 2.76329 23.3542 2.80871 23.3542 2.94912C23.3542 3.08953 23.212 3.13496 22.7722 3.13496H22.1902V3.69246V4.24997H22.8304C23.3219 4.24997 23.4706 4.29314 23.4706 4.4358C23.4706 4.5855 23.2896 4.62164 22.5394 4.62164ZM30.8038 4.62164C30.5825 4.62164 30.571 4.53904 30.571 2.94912V1.27661H31.3193C31.8444 1.27661 32.1222 1.33469 32.2505 1.47129C32.3511 1.57837 32.4334 1.85712 32.4334 2.09074C32.4334 2.33704 32.3453 2.6066 32.2238 2.73232C32.022 2.94101 32.0236 2.96998 32.2689 3.50663C32.409 3.81325 32.5606 4.19413 32.6058 4.35302C32.6765 4.60179 32.6517 4.63619 32.4271 4.6008C32.2836 4.57819 32.1278 4.47607 32.0809 4.37386C32.0339 4.27165 31.8954 3.96502 31.7729 3.69246C31.6285 3.37114 31.4599 3.18298 31.2934 3.15731C31.0527 3.12021 31.0366 3.16493 31.0366 3.86968C31.0366 4.53904 31.011 4.62164 30.8038 4.62164ZM31.2435 2.76329C31.3573 2.76329 31.5668 2.6765 31.7091 2.57043C31.8514 2.46436 31.9678 2.28038 31.9678 2.16159C31.9678 2.04281 31.905 1.87872 31.8281 1.79695C31.7513 1.71518 31.5418 1.64828 31.3625 1.64828C31.0539 1.64828 31.0366 1.67778 31.0366 2.20578C31.0366 2.65743 31.0759 2.76329 31.2435 2.76329ZM37.6714 4.62164C37.4501 4.62164 37.4386 4.53904 37.4386 2.94912V1.27661H37.7878C37.9799 1.27661 38.137 1.32287 38.137 1.3794C38.137 1.43594 38.412 1.97764 38.7481 2.58318L39.3592 3.68416L39.3925 2.48039C39.423 1.37864 39.4452 1.27661 39.6544 1.27661C39.8703 1.27661 39.883 1.36948 39.883 2.94912V4.62164H39.6063C39.454 4.62164 39.2783 4.55195 39.2156 4.46677C39.153 4.3816 38.9451 4.00528 38.7538 3.63052C38.5624 3.25575 38.2931 2.754 38.1554 2.51551L37.9051 2.08189L37.9046 3.35177C37.9043 4.53889 37.889 4.62164 37.6714 4.62164ZM41.8676 4.62164H41.1634V2.94912V1.27661H42.0279C42.8845 1.27661 42.8958 1.28088 43.2501 1.73845C43.5503 2.126 43.6078 2.30636 43.6078 2.85961C43.6078 3.22224 43.5284 3.68247 43.4312 3.88235C43.3341 4.08223 43.101 4.33034 42.9132 4.4337C42.7184 4.54093 42.2694 4.62164 41.8676 4.62164ZM41.9145 4.24997C42.0716 4.24997 42.3309 4.18649 42.4909 4.10891C42.6509 4.03133 42.8686 3.77311 42.9747 3.53508C43.1004 3.25321 43.1443 2.94599 43.1007 2.65404C43.0613 2.39071 42.9093 2.09079 42.7322 1.92703C42.5452 1.75401 42.2788 1.64828 42.0299 1.64828H41.629V2.94912C41.629 4.24744 41.6296 4.24997 41.9145 4.24997ZM45.7612 4.62164H44.8882V2.94912V1.27661H45.7612C46.4596 1.27661 46.6342 1.31378 46.6342 1.46245C46.6342 1.60511 46.4855 1.64828 45.994 1.64828H45.3538V2.20578V2.76329H45.9358C46.3755 2.76329 46.5178 2.80871 46.5178 2.94912C46.5178 3.08953 46.3755 3.13496 45.9358 3.13496H45.3538V3.69246V4.24997H45.994C46.4855 4.24997 46.6342 4.29314 46.6342 4.4358C46.6342 4.58447 46.4596 4.62164 45.7612 4.62164ZM48.0892 4.62164C47.9426 4.62164 47.9146 4.35321 47.9146 2.94912V1.27661H48.6646C49.3077 1.27661 49.4404 1.31587 49.5958 1.55196C49.6955 1.7034 49.777 1.97351 49.777 2.1522C49.777 2.3309 49.6764 2.57402 49.5534 2.69246C49.3337 2.90409 49.3357 2.92181 49.6698 3.71433C49.8568 4.15791 50.0098 4.54352 50.0098 4.57124C50.0098 4.59896 49.8874 4.62164 49.7379 4.62164C49.5166 4.62164 49.4098 4.48318 49.1646 3.8783C48.9079 3.24528 48.8187 3.13496 48.5635 3.13496C48.2748 3.13496 48.2638 3.16223 48.2638 3.8783C48.2638 4.45645 48.225 4.62164 48.0892 4.62164ZM48.4329 2.76329C48.5259 2.76329 48.731 2.70074 48.8887 2.6243C49.0463 2.54785 49.199 2.38852 49.2281 2.27022C49.2572 2.15193 49.2328 1.9636 49.174 1.85171C49.107 1.72437 48.9168 1.64828 48.6654 1.64828C48.267 1.64828 48.2638 1.65276 48.2638 2.20578C48.2638 2.61073 48.3101 2.76329 48.4329 2.76329ZM54.0838 4.62164H53.1526V2.94912V1.27661H54.0256C54.724 1.27661 54.8986 1.31378 54.8986 1.46245C54.8986 1.60285 54.7563 1.64828 54.3166 1.64828H53.7346V2.20578V2.76329H54.3166C54.7563 2.76329 54.8986 2.80871 54.8986 2.94912C54.8986 3.08953 54.7563 3.13496 54.3166 3.13496H53.7346V3.69246V4.24997H54.3748C54.8663 4.24997 55.015 4.29314 55.015 4.4358C55.015 4.5855 54.8339 4.62164 54.0838 4.62164ZM57.052 4.62164H56.179V2.94912C56.179 1.3592 56.1905 1.27661 56.4118 1.27661C56.6317 1.27661 56.6446 1.3592 56.6446 2.76329V4.24997H57.2848C57.7763 4.24997 57.925 4.29314 57.925 4.4358C57.925 4.58447 57.7504 4.62164 57.052 4.62164ZM59.1472 4.62164H58.8562V2.94912V1.27661H59.1472H59.4382V2.94912V4.62164H59.1472ZM61.4752 4.62164H61.1842V3.13496V1.64828H60.7186C60.3823 1.64828 60.253 1.59666 60.253 1.46245C60.253 1.30965 60.4599 1.27661 61.417 1.27661C62.3741 1.27661 62.581 1.30965 62.581 1.46245C62.581 1.59223 62.4581 1.64828 62.1736 1.64828H61.7662V3.13496V4.62164H61.4752ZM64.3852 4.62164H63.5122V2.94912V1.27661H64.3852C65.0836 1.27661 65.2582 1.31378 65.2582 1.46245C65.2582 1.60511 65.1095 1.64828 64.618 1.64828H63.9778V2.20578V2.76329H64.5598C64.9995 2.76329 65.1418 2.80871 65.1418 2.94912C65.1418 3.08953 64.9995 3.13496 64.5598 3.13496H63.9778V3.69246V4.24997H64.618C65.1095 4.24997 65.2582 4.29314 65.2582 4.4358C65.2582 4.58447 65.0836 4.62164 64.3852 4.62164ZM51.4648 3.50663C50.9733 3.50663 50.8246 3.46345 50.8246 3.32079C50.8246 3.17813 50.9733 3.13496 51.4648 3.13496C51.9563 3.13496 52.105 3.17813 52.105 3.32079C52.105 3.46345 51.9563 3.50663 51.4648 3.50663ZM34.5868 0.904941C34.4057 0.904941 34.2958 0.834737 34.2958 0.719107C34.2958 0.603476 34.4057 0.533272 34.5868 0.533272C34.7679 0.533272 34.8778 0.603476 34.8778 0.719107C34.8778 0.834737 34.7679 0.904941 34.5868 0.904941ZM35.3434 0.904941C35.2141 0.904941 35.1106 0.822348 35.1106 0.719107C35.1106 0.615865 35.2141 0.533272 35.3434 0.533272C35.4727 0.533272 35.5762 0.615865 35.5762 0.719107C35.5762 0.822348 35.4727 0.904941 35.3434 0.904941Z" fill="#949494"/>
</svg>
