<svg width="178" height="32" viewBox="0 0 178 32" fill="none" xmlns="http://www.w3.org/2000/svg">
<path d="M14.0945 18.1189L5.87936 26.8149L5.09375 25.9833L13.3073 17.2874L14.0945 18.1189Z" fill="#949494"/>
<path d="M14.9544 6.89867L13.1919 8.76324L12.4062 7.93215L14.1688 6.06592L14.9544 6.89867Z" fill="#949494"/>
<path d="M24.7314 1.70765L5.69967 21.8553L4.91406 21.0237L23.9458 0.875977L24.7314 1.70765Z" fill="#949494"/>
<path d="M14.9114 1.73564L10.7309 6.16082L9.94531 5.32923L14.1258 0.904053L14.9114 1.73564Z" fill="#949494"/>
<path d="M29.6359 12.0706L22.9747 19.1216L22.1875 18.29L28.8503 11.2373L29.6359 12.0706Z" fill="#949494"/>
<path d="M29.6315 17.2704L27.7231 19.2884L26.9375 18.457L28.8458 16.439L29.6315 17.2704Z" fill="#949494"/>
<path d="M19.8504 1.70992L15.6919 6.11143L14.9062 5.27993L19.0648 0.878418L19.8504 1.70992Z" fill="#949494"/>
<path d="M1.16842 31.8012L5.10115 27.6386L4.31555 26.8071L0.382812 30.9696L1.16842 31.8012Z" fill="#949494"/>
<path d="M29.6399 1.65882L14.8169 17.351L14.0312 16.5193L28.8543 0.827148L29.6399 1.65882Z" fill="#949494"/>
<path d="M29.619 6.88359L24.6294 12.1653L23.8438 11.3337L28.8318 6.052L29.619 6.88359Z" fill="#949494"/>
<path d="M14.834 22.5362L23.9195 12.9173L23.1339 12.0857L14.0469 21.7046L14.834 22.5362Z" fill="#949494"/>
<path d="M25.4262 21.7233L27.0257 20.0294L26.2401 19.1982L24.6406 20.8905L25.4262 21.7233Z" fill="#949494"/>
<path d="M49.943 9.58408C48.6274 8.31582 47.0954 7.75806 45.035 7.75806C41.2057 7.75806 38.2812 10.8557 38.2812 14.8961C38.2812 19.1558 41.0693 22.0658 45.1322 22.0658C47.0766 22.0658 48.549 21.6093 50.0403 20.5269V14.5509H45.093L44.897 16.4632H47.685V19.3732C46.901 19.8297 46.487 19.9127 45.3329 19.9127C44.294 19.8748 43.2947 19.481 42.4853 18.7906C41.5444 17.9174 40.8952 16.3802 40.8952 14.9725C40.8952 13.5648 41.1696 12.519 41.7984 11.6674C42.1968 11.1443 42.7029 10.7244 43.2779 10.4398C43.853 10.1553 44.4818 10.0136 45.1165 10.0256C46.3784 10.0152 47.5953 10.5213 48.5129 11.4383L49.9462 9.58906L49.943 9.58408ZM55.4203 21.7222H57.8148V16.5047H59.6541L62.8342 21.7222H65.6426L61.8526 15.7361C62.2152 15.5941 62.5536 15.3906 62.8546 15.1335C63.2764 14.7737 63.6169 14.3187 63.8513 13.8018C64.0857 13.2848 64.208 12.7189 64.2094 12.1455C64.2094 9.42306 62.3434 7.9473 58.9077 7.9473C57.7425 7.94069 56.5779 8.00832 55.4203 8.14982V21.7222ZM57.8148 9.95592C58.4232 9.936 58.4828 9.936 58.7556 9.936H59.0692C60.8161 9.936 61.8369 10.8291 61.8369 12.3464C61.8369 13.5316 60.9729 14.6704 60.112 14.6704H57.8148V9.95592ZM78.7047 8.08674V16.264C78.7047 17.426 78.5667 18.1763 78.2343 18.6959C77.7246 19.5259 76.8606 19.9011 75.4854 19.9011C74.681 19.9011 73.8954 19.6521 73.4046 19.257C72.7178 18.6744 72.4637 17.8643 72.4637 16.269V8.08674H70.0662V16.2756C70.0662 17.9356 70.3217 19.0977 70.891 19.9277C71.7942 21.2988 73.4626 22.0259 75.7206 22.0259C77.1539 22.0259 78.6263 21.5478 79.5091 20.8008C80.6287 19.8447 81.0991 18.515 81.0991 16.269V8.08674H78.7047ZM86.5372 8.2959V21.7222H88.7325V12.426L96.645 21.9247L98.0391 21.508V8.08674H95.8438V17.2949L87.9893 7.85932L86.5372 8.2959ZM103.48 21.6392C104.417 21.7579 105.359 21.82 106.303 21.8251H107.4C108.242 21.8041 109.081 21.7136 109.909 21.5545C110.872 21.347 111.619 21.0565 112.227 20.6199C113.856 19.4977 114.937 17.3364 114.937 15.175C114.937 11.9529 113.463 9.58408 110.891 8.62791C109.755 8.20971 108.561 7.99211 107.358 7.98382C106.061 7.96947 104.763 8.02488 103.471 8.14982V21.6392H103.48ZM105.875 10.0821C105.986 10.0694 106.097 10.0628 106.209 10.0622H106.66C106.961 10.0478 107.263 10.0545 107.564 10.0821C108.408 10.1302 109.236 10.3559 109.997 10.7461C111.43 11.4948 112.393 13.2195 112.393 15.0273C112.393 16.3553 112.08 17.4177 111.43 18.2693C110.665 19.2653 109.35 19.8081 107.681 19.8081C106.642 19.8081 106.621 19.8081 105.875 19.6836V10.0821V10.0821ZM122.34 10.1651H127.367V8.08674H119.991V21.7222H127.988L128.262 19.6222H122.346V15.6382H126.925V13.6163H122.346V10.1651H122.34ZM133.002 21.7222H135.397V16.5047H137.243L140.423 21.7222H143.233L139.443 15.7361C139.805 15.5941 140.144 15.3906 140.445 15.1335C140.866 14.7737 141.207 14.3187 141.441 13.8018C141.676 13.2848 141.798 12.7189 141.799 12.1455C141.799 9.42306 139.933 7.9473 136.498 7.9473C135.33 7.94208 134.164 8.01137 133.004 8.1548V21.7271L133.002 21.7222ZM135.402 9.95592C136.01 9.936 136.07 9.936 136.342 9.936H136.656C138.403 9.936 139.424 10.8291 139.424 12.3464C139.424 13.5316 138.56 14.6704 137.699 14.6704H135.402V9.95592Z" fill="#949494"/>
<path d="M72.4609 4.41382V6.98366H74.8899V4.41382H72.4609Z" fill="#949494"/>
<path d="M76.2656 4.41382V6.98366H78.6946V4.41382H76.2656Z" fill="#949494"/>
<path d="M147.133 19.1562H149.548V21.7128H147.133V19.1562Z" fill="#949494"/>
<path d="M170.75 20.8279V14.9216H175.707V14.0683H170.75V8.92058H176.362V8.06567H169.867V21.7011H176.941L177.101 20.8279H170.75Z" fill="#949494"/>
<path d="M162.471 9.68677C161.148 8.49654 159.359 7.96533 156.669 7.96533C156.295 7.96533 155.581 8.00351 155.036 8.06825L154.835 8.09149C154.703 8.10643 154.543 8.12303 154.364 8.14959L154.266 8.16287V21.5792L154.364 21.5941C155.255 21.748 156.157 21.8163 157.06 21.7983C158.954 21.7983 160.736 21.3717 161.827 20.6578C163.629 19.4626 164.58 17.4507 164.58 14.8478C164.58 12.8558 163.774 10.877 162.478 9.69009L162.471 9.68677ZM163.673 14.8445C163.673 16.6854 163.177 18.1147 162.161 19.2103C161.09 20.3839 159.473 20.9301 157.074 20.9301C156.429 20.9371 155.784 20.8877 155.147 20.7824V8.90822C155.628 8.84991 156.112 8.81998 156.596 8.81858C159.5 8.81858 161.396 9.58219 162.554 11.2206C163.274 12.2759 163.664 13.543 163.669 14.8445H163.673Z" fill="#949494"/>
</svg>
