<svg width="104" height="37" viewBox="0 0 104 37" fill="none" xmlns="http://www.w3.org/2000/svg">
<path d="M15.1231 16.1739C15.1231 13.5811 15.1019 12.1532 15.0574 10.6964C15.0361 9.56035 14.9259 6.70467 14.8641 6.26805C14.8262 5.963 14.6892 5.68197 14.477 5.47424C14.2649 5.26651 13.9912 5.14534 13.7039 5.13198H13.0079C12.8996 5.13198 12.8764 5.04507 12.8764 4.86918V4.14077C12.8764 3.99592 12.8977 3.93384 13.0697 3.93384C13.3095 3.93384 14.0056 4.02075 15.6181 4.02075C16.9252 4.02075 17.4472 3.93384 17.687 3.93384C17.8804 3.93384 17.9055 3.99178 17.9055 4.16767V4.86711C17.9055 5.01196 17.8842 5.12991 17.7972 5.12991H17.192C16.8208 5.12991 16.612 5.62448 16.5385 6.67363C16.3857 8.62501 16.0377 15.2096 16.0377 19.0565V24.0395C16.0377 24.4761 16.0164 25.0017 15.7109 25.0017C15.5451 25.0015 15.3817 24.9592 15.2342 24.8783C15.0866 24.7973 14.9591 24.6801 14.8621 24.5361C14.4909 24.0705 13.4255 22.5268 12.1185 20.4575L8.38675 14.5412C8.01551 13.9577 5.01081 8.95404 4.5197 7.98559H4.34568V13.8666C4.34568 16.2857 4.53903 19.8677 4.56417 20.9748C4.60864 22.6654 4.99921 23.5387 5.91763 23.5387H6.45322C6.60597 23.5387 6.62724 23.6256 6.62724 23.8015V24.5009C6.62724 24.6748 6.60597 24.7348 6.45322 24.7348C6.23473 24.7348 4.9296 24.6479 3.90483 24.6479C3.23003 24.6479 1.72768 24.7348 1.5092 24.7348C1.42219 24.7348 1.40092 24.6768 1.40092 24.472V23.7146C1.40092 23.6277 1.42219 23.5408 1.5324 23.5408H2.29614C2.77566 23.5408 3.12369 22.6075 3.23197 20.6561C3.25324 20.1015 3.42532 15.4414 3.42532 11.1372V8.5112C3.42532 6.79159 2.64031 5.16095 1.55173 5.13198L1.00648 5.10301C0.898202 5.10301 0.875 4.98713 0.875 4.89608V4.1118C0.875 3.99592 0.896269 3.93798 1.00648 3.93798C1.11669 3.93798 1.28877 3.96695 1.70255 3.96695C2.11632 3.96695 2.8356 4.02489 3.96671 4.02489C4.70725 4.02489 5.36078 3.96695 5.62181 3.96695C5.75053 3.96184 5.8781 3.99465 5.99061 4.06179C6.10312 4.12892 6.19626 4.22782 6.25987 4.3477L11.3122 12.625L15.0361 18.833H15.1231V16.1739Z" fill="#949494"/>
<path d="M24.7055 13.4882C25.7071 13.4882 26.6661 13.4013 26.9271 13.3144C27.2984 13.1985 27.6019 12.9357 27.9287 12.4122C28.2186 11.8571 28.3896 11.2401 28.4295 10.6057C28.4295 10.3987 28.4952 10.3429 28.6035 10.3429L29.1836 10.4298C29.2918 10.4587 29.3769 10.4877 29.3576 10.6636C29.2918 11.1582 29.2918 12.6729 29.2918 13.6931C29.2918 15.0051 29.3789 16.4019 29.4233 17.0144C29.4446 17.1882 29.3576 17.2213 29.2493 17.2482L28.7273 17.3931C28.6402 17.422 28.5958 17.3641 28.5532 17.1592C28.4439 16.6528 28.2984 16.1561 28.1182 15.6735C28.0026 15.4181 27.8348 15.1939 27.6273 15.0173C27.4198 14.8408 27.1779 14.7163 26.9194 14.6533C26.1879 14.5238 25.4468 14.467 24.7055 14.4836V16.2322C24.7055 17.8049 24.8138 20.6316 24.8138 21.1551C24.8138 22.6699 25.0536 23.1955 25.3358 23.3693C25.6626 23.5431 26.0764 23.6321 27.165 23.6321C27.5362 23.6321 28.4508 23.6031 28.9051 23.5452C29.5384 23.4209 30.1182 23.0839 30.5602 22.583C31.1268 21.9622 32.3468 20.1639 32.7819 19.4665C32.8689 19.3507 32.9346 19.3217 33.0003 19.3796L33.3735 19.6569C33.41 19.6802 33.4383 19.7158 33.4541 19.758C33.4698 19.8003 33.4721 19.847 33.4605 19.8908L32.4802 24.2902C32.463 24.4126 32.4049 24.5242 32.3168 24.6045C32.2287 24.6847 32.1164 24.7282 32.0007 24.7268C31.8924 24.7268 31.4207 24.6978 30.0188 24.6688C28.617 24.6399 26.2949 24.6399 22.5264 24.6399C21.7202 24.6399 21.1111 24.6688 20.6761 24.6688C20.241 24.6688 19.9355 24.7268 19.7402 24.7268C19.5875 24.7268 19.5469 24.6399 19.5469 24.406V23.7852C19.5469 23.6114 19.6126 23.5224 19.7654 23.5224H20.4189C21.4205 23.5224 21.5075 23.3155 21.5075 22.2995V12.557C21.5075 10.138 21.463 6.55598 21.4417 6.2642C21.3547 5.33093 21.1362 5.12814 20.5484 5.12814H19.6958C19.6087 5.12814 19.5875 5.04122 19.5875 4.83636V4.13693C19.5875 4.05001 19.6087 3.92999 19.7402 3.92999C20.2197 3.92999 20.9816 4.0169 22.9634 4.0169L30.6086 3.98793C30.9566 3.98793 31.3704 3.92999 31.4806 3.92999C31.5214 3.92578 31.5622 3.93844 31.5945 3.96538C31.6269 3.99231 31.6484 4.03148 31.6546 4.07485C31.7416 4.48871 32.4609 8.47425 32.5479 8.76602C32.5924 8.91088 32.5924 8.97296 32.4822 9.0578L32.1341 9.29163C32.0471 9.34957 31.9408 9.3206 31.8731 9.17575C31.7648 8.94192 29.8042 6.32007 29.3034 5.91241C28.8452 5.53372 28.2361 5.15504 27.6483 5.12607L24.7732 5.01018L24.7055 13.4882Z" fill="#949494"/>
<path d="M40.5634 5.36009H39.8016C39.1055 5.36009 37.7985 5.38906 36.8839 5.82569C36.4044 6.29129 35.4473 8.06885 34.902 9.118C34.8363 9.26285 34.7706 9.35183 34.6835 9.32493L34.204 9.0911C34.117 9.06212 34.0958 8.91727 34.117 8.82829C34.3568 7.60531 35.0838 3.75843 35.1631 3.17694C35.2288 2.79826 35.3371 2.68237 35.4898 2.68237C35.6426 2.68237 35.7083 2.79826 35.9036 3.119C36.1434 3.53287 36.5571 3.78947 37.3402 3.84741C38.5003 3.93432 39.4091 4.02123 41.6752 4.02123H42.9378C45.3121 4.02123 46.248 3.90535 47.1625 3.84741C47.642 3.81844 48.4908 3.46872 48.7519 3.119C48.9704 2.82723 49.0999 2.68237 49.2527 2.68237C49.4054 2.68237 49.4711 2.79826 49.5137 3.14797L50.1672 8.9421C50.1804 8.99014 50.1791 9.04139 50.1634 9.08857C50.1478 9.13575 50.1187 9.17646 50.0802 9.20491L49.622 9.43874C49.535 9.46771 49.4905 9.3808 49.4035 9.17594C48.924 8.12679 48.0751 6.61204 47.5299 5.9126C46.9846 5.47597 45.0472 5.35802 44.5465 5.35802H43.8291V13.3725C43.8291 13.7864 43.8291 21.9375 43.8504 22.3741C43.8949 23.1025 44.0689 23.5392 44.5909 23.5392H45.5712C45.7646 23.5392 45.7897 23.6261 45.7897 23.8309V24.5014C45.7897 24.6463 45.7684 24.7352 45.5712 24.7352C45.374 24.7352 44.6567 24.6483 42.2398 24.6483C39.9311 24.6483 39.0166 24.7352 38.7111 24.7352C38.5371 24.7352 38.5177 24.6194 38.5177 24.3855V23.8309C38.5177 23.624 38.539 23.5392 38.6705 23.5392H39.7803C40.2154 23.5392 40.4764 23.1895 40.5209 22.6659C40.5653 22.0451 40.5653 13.1097 40.5653 12.5552L40.5634 5.36009Z" fill="#949494"/>
<path d="M53.9369 22.4072C52.3243 20.4848 51.5625 17.1346 51.5625 14.6286C51.5625 11.6281 52.2818 8.91727 53.8054 6.73412C55.0467 4.95657 56.8546 3.58667 59.5557 3.58667C61.5376 3.58667 63.1714 4.25713 63.9332 4.80965C64.2387 5.01658 64.347 4.98347 64.3914 4.78067L64.5655 4.05227C64.608 3.87845 64.6525 3.87845 64.9792 3.87845C65.306 3.87845 65.3485 3.93225 65.3485 4.34611C65.3485 4.9007 65.7352 9.85261 65.8493 10.7259C65.8706 10.9328 65.8493 11.0756 65.741 11.1046L65.2615 11.2784C65.1533 11.3363 65.0682 11.2204 65.0005 10.9576C64.6873 9.5381 64.0939 8.20671 63.2603 7.0528C62.3206 5.82776 61.1741 4.86759 59.5112 4.86759C56.3402 4.86759 54.9868 8.74138 55.0042 13.0539C55.0042 14.8894 55.3909 18.4734 56.9377 20.6587C58.353 22.61 59.5944 22.8439 60.3349 22.8439C62.8176 22.8439 64.6699 21.3291 65.4742 19.7275C65.5825 19.4936 65.6927 19.3777 65.801 19.4936L66.1722 19.9303C66.238 19.9882 66.2592 20.1041 66.1722 20.28C64.9096 22.728 62.7963 25.087 59.7258 25.087C56.8333 25.087 55.3097 24.0379 53.9369 22.4072Z" fill="#949494"/>
<path d="M71.0144 23.191C69.4676 21.9391 67.8125 18.7916 67.8125 14.5371C67.8103 11.9586 68.5148 9.43616 69.8388 7.282C71.755 4.16558 74.2163 3.58203 76.1769 3.58203C77.9848 3.58203 79.6573 3.96072 81.4903 5.88313C83.1454 7.63171 84.4737 10.5743 84.4737 14.595C84.4744 16.8418 83.9072 19.047 82.8321 20.9768C81.4168 23.3359 79.5645 25.0845 76.1247 25.0845C74.2726 25.0751 72.4755 24.4092 71.0144 23.191ZM81.0552 14.8289C81.0552 8.4491 77.919 4.95193 76.0899 4.95193C75.6549 4.95193 74.5663 4.80708 73.236 6.52462C71.9502 8.15526 71.3025 11.2158 71.3025 13.6038C71.3025 21.0534 74.5044 23.7125 76.3123 23.7125C80.3359 23.7146 81.0552 17.2169 81.0552 14.8289Z" fill="#949494"/>
<path d="M90.4207 23.191C88.8739 21.9391 87.2188 18.7916 87.2188 14.5371C87.2167 11.9587 87.9212 9.43621 89.2451 7.282C91.1612 4.16558 93.6226 3.58203 95.5832 3.58203C97.391 3.58203 99.0635 3.96072 100.897 5.88313C102.552 7.63172 103.88 10.5743 103.88 14.595C103.883 16.8404 103.318 19.0447 102.246 20.9748C100.831 23.3338 98.9785 25.0824 95.5387 25.0824C93.6841 25.0754 91.8841 24.4102 90.4207 23.191ZM100.461 14.8289C100.461 8.4491 97.3253 4.95193 95.4962 4.95193C95.0611 4.95193 93.9726 4.80708 92.6423 6.52462C91.3565 8.15526 90.7088 11.2158 90.7088 13.6038C90.7088 21.0534 93.9107 23.7125 95.7185 23.7125C99.7422 23.7146 100.461 17.2169 100.461 14.8289Z" fill="#949494"/>
<path d="M1.67188 27.842H2.89773L5.68007 33.2673H5.69747V27.842H6.60043V34.5791H5.44032L2.58643 29.0401H2.57483V34.5791H1.67188V27.842Z" fill="#949494"/>
<path d="M11.6059 34.3753L11.3449 34.4767C11.2547 34.5126 11.1541 34.5464 11.0433 34.5781C10.916 34.6139 10.7869 34.6415 10.6565 34.6609C10.4905 34.6844 10.3232 34.6955 10.1558 34.694C9.79432 34.703 9.43461 34.6377 9.09619 34.5015C8.81393 34.3847 8.56055 34.1999 8.35565 33.9616C8.15456 33.719 8.00542 33.4323 7.91868 33.1216C7.81881 32.7681 7.76991 32.4005 7.77366 32.0312C7.76958 31.6898 7.82127 31.3502 7.92641 31.0278C8.02194 30.7374 8.17048 30.4701 8.36339 30.2416C8.55304 30.0191 8.78514 29.8427 9.04399 29.7244C9.3236 29.5988 9.62438 29.5361 9.92761 29.5403C10.2606 29.5265 10.5919 29.5974 10.8944 29.7472C11.1452 29.8814 11.3595 30.0823 11.517 30.3306C11.6814 30.5993 11.7962 30.8991 11.8553 31.214C11.9267 31.5759 11.9617 31.9449 11.9597 32.3147H8.67275C8.6699 32.5434 8.71138 32.7702 8.79456 32.9809C8.87251 33.1756 8.98627 33.3515 9.12906 33.4981C9.27014 33.6424 9.43547 33.7568 9.61631 33.8354C9.80026 33.9163 9.99748 33.9571 10.1964 33.9553C10.3409 33.9545 10.4848 33.9364 10.6256 33.9016C10.7663 33.8681 10.9051 33.826 11.0413 33.7754C11.1593 33.7323 11.2737 33.679 11.3836 33.616C11.4639 33.5708 11.5408 33.5189 11.6136 33.4609L11.6059 34.3753ZM11.0549 31.6444C11.0556 31.4638 11.0295 31.2844 10.9775 31.1126C10.9302 30.953 10.8554 30.8043 10.7571 30.674C10.6593 30.5477 10.5355 30.4471 10.3955 30.3802C10.2421 30.3078 10.0759 30.2718 9.90827 30.2747C9.72213 30.2689 9.53751 30.3122 9.37075 30.4009C9.22834 30.4804 9.10265 30.5902 9.00145 30.7237C8.90316 30.8546 8.82723 31.0031 8.77716 31.1623C8.72675 31.3187 8.69176 31.4802 8.67275 31.6444H11.0549Z" fill="#949494"/>
<path d="M14.0808 32.0014L12.5843 29.6553H13.64L14.6416 31.4118L15.6605 29.6553H16.608L15.1288 32.0014L16.753 34.5793H15.705L14.572 32.6469L13.4312 34.5772H12.4219L14.0808 32.0014Z" fill="#949494"/>
<path d="M19.9783 30.3909H18.7602V33.0807C18.7522 33.1998 18.7669 33.3193 18.8035 33.4321C18.84 33.5449 18.8977 33.6485 18.9729 33.7367C19.0381 33.8077 19.1161 33.8639 19.2022 33.902C19.2882 33.94 19.3806 33.9591 19.4737 33.958C19.5885 33.9607 19.7029 33.9425 19.812 33.9043C19.8959 33.874 19.9763 33.8338 20.0518 33.7842V34.5581C19.9551 34.5898 19.8455 34.6202 19.7231 34.6491C19.596 34.6783 19.4664 34.6928 19.3364 34.6926C18.9606 34.7179 18.589 34.5966 18.2903 34.3512C18.0325 34.1222 17.9036 33.7601 17.9036 33.2649V30.3888H16.875V29.6543H17.9114V28.5162L18.7583 28.2266V29.6543H19.9764L19.9783 30.3909Z" fill="#949494"/>
<path d="M23.5938 27.842H27.1205V28.6904H24.4967V30.6602H26.8865V31.5085H24.4967V33.7308H27.1224V34.5791H23.5938V27.842Z" fill="#949494"/>
<path d="M31.3593 30.4835C31.2048 30.4154 31.045 30.3621 30.8817 30.3242C30.7362 30.2899 30.5878 30.2719 30.4389 30.2704C30.2214 30.2665 30.0063 30.3198 29.8125 30.4256C29.6317 30.5261 29.4734 30.6672 29.3484 30.8393C29.2202 31.0174 29.1227 31.2185 29.0603 31.4331C28.9946 31.6532 28.9613 31.8828 28.9617 32.1138C28.9619 32.3356 28.9905 32.5562 29.0468 32.7697C29.1017 32.9839 29.1935 33.1852 29.3175 33.3634C29.444 33.5439 29.6073 33.6911 29.7951 33.7938C30.0125 33.9084 30.2527 33.9645 30.495 33.9572C30.652 33.9552 30.808 33.9308 30.959 33.8848C31.1168 33.8403 31.2674 33.7706 31.4057 33.6779L31.4695 34.4889C31.2981 34.5782 31.1137 34.6356 30.9242 34.6586C30.7522 34.6797 30.5792 34.6908 30.406 34.6917C30.0789 34.6953 29.7547 34.6248 29.4547 34.4848C29.1745 34.3568 28.9213 34.1696 28.7103 33.9345C28.5002 33.695 28.336 33.4139 28.227 33.1069C28.1112 32.7884 28.0529 32.4493 28.0549 32.1076C28.051 31.7548 28.1073 31.4042 28.2212 31.0731C28.3259 30.769 28.4885 30.4914 28.6987 30.258C28.9091 30.0276 29.1611 29.8453 29.4393 29.7221C29.7461 29.5888 30.075 29.5234 30.406 29.5297C30.5923 29.5309 30.778 29.5503 30.961 29.5876C31.1225 29.6162 31.2811 29.6612 31.4347 29.7221L31.3593 30.4835Z" fill="#949494"/>
<path d="M32.1018 32.1168C32.0978 31.7641 32.1542 31.4135 32.268 31.0824C32.3727 30.7782 32.5354 30.5006 32.7456 30.2672C32.956 30.0368 33.2079 29.8544 33.4862 29.7314C34.1023 29.4743 34.7862 29.4743 35.4023 29.7314C35.6813 29.8529 35.9335 30.0354 36.1428 30.2672C36.3508 30.5017 36.512 30.7791 36.6165 31.0824C36.7304 31.4135 36.7867 31.7641 36.7828 32.1168C36.7848 32.4586 36.7264 32.7976 36.6107 33.1161C36.5024 33.4221 36.3403 33.703 36.1332 33.9437C35.9248 34.1813 35.6726 34.3701 35.3926 34.4982C35.0917 34.6319 34.7691 34.7008 34.4433 34.7008C34.1174 34.7008 33.7948 34.6319 33.4939 34.4982C33.2147 34.3658 32.9635 34.1744 32.7553 33.9354C32.5452 33.696 32.381 33.4148 32.2719 33.1079C32.1578 32.7918 32.1001 32.4557 32.1018 32.1168ZM33.0028 32.1168C33.003 32.3386 33.0316 32.5593 33.0879 32.7727C33.142 32.9853 33.2304 33.1862 33.3489 33.3665C33.4657 33.5439 33.6184 33.691 33.7955 33.7968C33.995 33.9111 34.219 33.9674 34.4452 33.9602C34.6682 33.9665 34.8888 33.9101 35.0852 33.7968C35.2623 33.691 35.415 33.5439 35.5318 33.3665C35.6503 33.1862 35.7386 32.9853 35.7929 32.7727C35.8491 32.5593 35.8777 32.3386 35.8779 32.1168C35.8782 31.8858 35.845 31.6562 35.7793 31.4362C35.7172 31.223 35.6224 31.0224 35.499 30.8424C35.3796 30.6701 35.2257 30.5287 35.0484 30.4286C34.8603 30.3277 34.6527 30.2752 34.4423 30.2752C34.2318 30.2752 34.0243 30.3277 33.8361 30.4286C33.6599 30.5303 33.5063 30.6714 33.3856 30.8424C33.2597 31.0214 33.1636 31.2222 33.1014 31.4362C33.0357 31.6562 33.0024 31.8858 33.0028 32.1168Z" fill="#949494"/>
<path d="M37.8691 29.6545H38.6909V30.4366H38.7083C38.8368 30.151 39.0495 29.9184 39.3135 29.7745C39.5914 29.6167 39.9018 29.5356 40.2164 29.5387C40.8119 29.5387 41.2476 29.7256 41.5235 30.0993C41.7993 30.4731 41.9379 30.991 41.9392 31.6531V34.5765H41.0923V32.0296C41.1167 31.5874 41.0459 31.145 40.8854 30.7366C40.8086 30.5909 40.6958 30.4706 40.5594 30.3889C40.423 30.3071 40.2682 30.2671 40.112 30.2731C39.895 30.2673 39.6799 30.3185 39.4855 30.4221C39.3104 30.5197 39.1604 30.6618 39.0486 30.8359C38.9272 31.0307 38.8413 31.2483 38.7953 31.4772C38.7388 31.7489 38.7115 32.0265 38.7141 32.3048V34.5806H37.8672L37.8691 29.6545Z" fill="#949494"/>
<path d="M43.0314 32.1168C43.0275 31.7641 43.0839 31.4135 43.1977 31.0824C43.3024 30.7782 43.4651 30.5006 43.6753 30.2672C43.8857 30.0368 44.1376 29.8544 44.4158 29.7314C45.032 29.4743 45.7158 29.4743 46.332 29.7314C46.611 29.8529 46.8632 30.0354 47.0725 30.2672C47.2805 30.5017 47.4417 30.7791 47.5462 31.0824C47.6601 31.4135 47.7164 31.7641 47.7125 32.1168C47.7144 32.4586 47.6561 32.7976 47.5404 33.1161C47.4321 33.4221 47.27 33.703 47.0628 33.9437C46.8544 34.1813 46.6023 34.3701 46.3223 34.4982C46.0214 34.6319 45.6988 34.7008 45.3729 34.7008C45.0471 34.7008 44.7245 34.6319 44.4236 34.4982C44.1444 34.3685 43.8925 34.1799 43.683 33.9437C43.473 33.7042 43.3088 33.4231 43.1997 33.1161C43.0853 32.7973 43.0282 32.4583 43.0314 32.1168ZM43.9325 32.1168C43.9327 32.3386 43.9613 32.5593 44.0175 32.7727C44.0717 32.9853 44.1601 33.1862 44.2786 33.3665C44.3954 33.5439 44.5481 33.691 44.7252 33.7968C44.9247 33.9111 45.1487 33.9674 45.3749 33.9602C45.5979 33.9665 45.8185 33.9101 46.0149 33.7968C46.192 33.691 46.3447 33.5439 46.4615 33.3665C46.58 33.1862 46.6683 32.9853 46.7225 32.7727C46.7787 32.5593 46.8074 32.3386 46.8076 32.1168C46.8079 31.8858 46.7746 31.6562 46.709 31.4362C46.6468 31.223 46.5521 31.0224 46.4286 30.8424C46.3093 30.6701 46.1554 30.5287 45.9781 30.4286C45.79 30.3277 45.5824 30.2752 45.372 30.2752C45.1615 30.2752 44.954 30.3277 44.7658 30.4286C44.5896 30.5303 44.436 30.6714 44.3153 30.8424C44.1894 31.0214 44.0933 31.2222 44.0311 31.4362C43.9654 31.6562 43.9321 31.8858 43.9325 32.1168Z" fill="#949494"/>
<path d="M48.7969 29.6538H49.5916V30.3676H49.609C49.7486 30.1015 49.9549 29.8823 50.2045 29.7345C50.4732 29.5912 50.7705 29.5201 51.0707 29.5276C51.3391 29.5291 51.6022 29.6077 51.8325 29.7552C52.088 29.9226 52.2808 30.1802 52.3778 30.4835C52.4507 30.3169 52.5516 30.1661 52.6755 30.0387C52.7915 29.9209 52.9215 29.82 53.0622 29.7387C53.1807 29.6718 53.3068 29.6218 53.4373 29.5897C53.5526 29.56 53.6707 29.5441 53.7892 29.5421C54.0441 29.534 54.2977 29.5834 54.5336 29.6869C54.7244 29.775 54.8927 29.9105 55.0248 30.0821C55.1542 30.2572 55.2478 30.4595 55.2993 30.6759C55.3581 30.9205 55.3867 31.1723 55.3844 31.4248V34.5758H54.5375V31.6421C54.5376 31.4836 54.5272 31.3253 54.5066 31.1683C54.4877 31.0162 54.4466 30.8681 54.3848 30.7297C54.3262 30.5999 54.2394 30.487 54.1315 30.4007C54.0101 30.3094 53.864 30.2636 53.7158 30.2704C53.5208 30.2645 53.3282 30.3184 53.1608 30.4256C53.0068 30.5296 52.8782 30.6714 52.7857 30.8393C52.6854 31.02 52.6136 31.2171 52.5731 31.4228C52.5276 31.645 52.505 31.8718 52.5054 32.0993V34.582H51.6566V31.6421C51.6566 31.4836 51.6462 31.3253 51.6256 31.1683C51.6068 31.0162 51.5657 30.8681 51.5038 30.7297C51.4453 30.5998 51.3585 30.487 51.2505 30.4007C51.1292 30.3094 50.983 30.2636 50.8348 30.2704C50.6398 30.2644 50.4473 30.3183 50.2799 30.4256C50.1258 30.5295 49.9972 30.6714 49.9048 30.8393C49.8046 31.0201 49.7327 31.2172 49.6921 31.4228C49.6466 31.645 49.624 31.8718 49.6244 32.0993V34.582H48.7969V29.6538Z" fill="#949494"/>
<path d="M56.4461 35.9099C56.5096 35.9316 56.5741 35.9496 56.6395 35.9637C56.7093 35.9801 56.7806 35.9884 56.8522 35.9885C57.0252 35.9937 57.1939 35.9303 57.3259 35.8106C57.45 35.6977 57.5564 35.5643 57.641 35.4154C57.7159 35.2865 57.7738 35.1473 57.8131 35.0015C57.8357 34.9259 57.8526 34.8484 57.8634 34.7698C57.8564 34.6883 57.8368 34.6085 57.8054 34.5339L57.701 34.2484L56.1406 29.6528H57.0707L58.2965 33.729H58.3139L59.5765 29.6549H60.4331L58.7373 34.6829C58.6587 34.9201 58.5743 35.1602 58.4841 35.4029C58.3988 35.6345 58.2884 35.8547 58.1554 36.0589C58.0279 36.2532 57.8631 36.4161 57.672 36.5368C57.4574 36.6655 57.2141 36.7292 56.9682 36.721C56.8562 36.7228 56.7443 36.7145 56.6337 36.6961L56.3901 36.6527L56.4461 35.9099Z" fill="#949494"/>
<path d="M63.7988 27.842H65.2876L67.2618 33.4411L69.1953 27.842H70.6841V34.5791H69.7831V28.7504H69.7657L67.6852 34.5791H66.8016L64.7172 28.7483H64.6998V34.5791H63.7969L63.7988 27.842Z" fill="#949494"/>
<path d="M72.4017 30.0046C72.6204 29.8654 72.8533 29.7537 73.0958 29.6715C73.3617 29.5824 73.639 29.5384 73.9176 29.5411C74.5788 29.5411 75.0526 29.7115 75.3387 30.0522C75.6249 30.3928 75.768 30.9011 75.768 31.577V33.6128C75.768 33.8955 75.768 34.1093 75.768 34.2541C75.7706 34.3622 75.7797 34.47 75.795 34.5769H75.0003V33.9355H74.9829C74.9266 34.0245 74.8618 34.107 74.7896 34.1817C74.6982 34.2747 74.597 34.356 74.488 34.4238C74.3598 34.503 74.2236 34.5661 74.0819 34.6121C73.9138 34.6654 73.7391 34.6912 73.5637 34.6886C73.3343 34.6908 73.1056 34.6616 72.8831 34.6017C72.6882 34.5505 72.5052 34.4568 72.3456 34.3266C72.1945 34.2005 72.0749 34.0363 71.9976 33.8486C71.9114 33.6288 71.8699 33.3918 71.8758 33.1535C71.8665 32.8784 71.9412 32.6075 72.0885 32.3818C72.2286 32.1771 72.4087 32.0077 72.6163 31.8852C72.8332 31.757 73.0674 31.6656 73.3104 31.6142C73.5419 31.5617 73.7777 31.534 74.0142 31.5314H74.4648C74.5937 31.5314 74.7438 31.5376 74.9153 31.5501C74.9383 31.2091 74.8509 30.8701 74.6678 30.5901C74.5028 30.3749 74.207 30.2673 73.7803 30.2673C73.5357 30.2677 73.2931 30.3132 73.063 30.4018C72.8382 30.4839 72.6287 30.6079 72.4442 30.768L72.4017 30.0046ZM74.9153 32.2349C74.825 32.2349 74.7348 32.2349 74.6446 32.2349C74.5543 32.2349 74.4641 32.2349 74.3739 32.2349C74.2592 32.2349 74.1116 32.2431 73.9311 32.2597C73.7511 32.2756 73.5737 32.3159 73.4033 32.3797C73.2383 32.4399 73.0873 32.5373 72.9605 32.6652C72.8959 32.7319 72.8452 32.8125 72.8119 32.9016C72.7786 32.9908 72.7633 33.0865 72.7671 33.1824C72.7649 33.3026 72.793 33.4213 72.8483 33.5259C72.8974 33.6217 72.963 33.7066 73.0417 33.7762C73.124 33.8448 73.2169 33.8973 73.3162 33.9314C73.4123 33.9659 73.5127 33.9841 73.614 33.9852C73.789 33.9987 73.9648 33.9725 74.1297 33.9083C74.2946 33.8441 74.445 33.7434 74.5711 33.6128C74.7882 33.3635 74.9049 33.0327 74.8959 32.6921L74.9153 32.2349Z" fill="#949494"/>
<path d="M81.2389 34.3651C81.2389 35.1114 81.0494 35.6908 80.6704 36.1032C80.2914 36.5156 79.6901 36.7226 78.8664 36.7239C78.7465 36.7239 78.6279 36.7191 78.5106 36.7095C78.3848 36.6984 78.2596 36.6804 78.1355 36.6557C78.0066 36.6295 77.8668 36.5957 77.716 36.5543C77.5652 36.5129 77.3982 36.4563 77.2152 36.3846L77.3061 35.5445C77.4685 35.6218 77.6174 35.6908 77.7527 35.7515C77.8788 35.8067 78.008 35.8537 78.1394 35.8922C78.2665 35.9274 78.3957 35.953 78.5261 35.9687C78.6699 35.9857 78.8145 35.9939 78.9592 35.9935C79.1546 36.0054 79.35 35.971 79.5315 35.8927C79.713 35.8143 79.8761 35.694 80.0091 35.5404C80.2748 35.1913 80.4087 34.7484 80.3842 34.2989V33.8168H80.3668C80.1911 34.0708 79.9546 34.2695 79.6824 34.392C79.4117 34.5162 79.1203 34.5803 78.8258 34.5803C78.5259 34.585 78.2292 34.5141 77.9596 34.3734C77.7195 34.2475 77.5098 34.0642 77.3467 33.8375C77.1815 33.6065 77.0576 33.3449 76.9812 33.0657C76.899 32.7682 76.8579 32.4594 76.8594 32.1491C76.8596 31.8305 76.9019 31.5136 76.9851 31.2076C77.0658 30.9051 77.1968 30.6205 77.3718 30.3676C77.5426 30.1198 77.7608 29.9139 78.0118 29.7634C78.29 29.6029 78.6026 29.523 78.9186 29.5317C79.2534 29.5145 79.5865 29.5908 79.8854 29.753C80.1204 29.8979 80.3101 30.1139 80.4306 30.3738H80.448V29.6392H81.2331L81.2389 34.3651ZM79.0462 33.8437C79.235 33.8459 79.4216 33.8013 79.5915 33.7134C79.7549 33.6278 79.8993 33.5057 80.0149 33.3554C80.1356 33.1972 80.2286 33.0171 80.2895 32.8236C80.3565 32.6139 80.3898 32.3935 80.3881 32.1719C80.3926 31.9297 80.3692 31.6879 80.3185 31.4518C80.2694 31.2355 80.1836 31.0307 80.0652 30.8476C79.9544 30.6778 79.8098 30.5365 79.6418 30.4338C79.4644 30.3287 79.2644 30.2752 79.0617 30.2786C78.8619 30.2735 78.6652 30.3326 78.4971 30.4483C78.3378 30.5615 78.2027 30.7096 78.1007 30.8828C77.9931 31.0651 77.9122 31.264 77.861 31.4725C77.8079 31.6816 77.7806 31.8972 77.7798 32.1139C77.7788 32.3383 77.8094 32.5615 77.8706 32.776C77.9262 32.9745 78.0117 33.1618 78.1239 33.3306C78.2294 33.4884 78.3669 33.6186 78.5261 33.7113C78.6872 33.8009 78.8666 33.8464 79.0482 33.8437H79.0462Z" fill="#949494"/>
<path d="M82.8626 30.0046C83.0813 29.8654 83.3142 29.7537 83.5568 29.6715C83.8226 29.5824 84.0999 29.5384 84.3785 29.5411C85.0398 29.5411 85.5135 29.7115 85.7997 30.0522C86.0858 30.3928 86.2289 30.9011 86.2289 31.577V33.6128C86.2289 33.8955 86.2289 34.1093 86.2289 34.2541C86.2316 34.3622 86.2406 34.47 86.256 34.5769H85.4613V33.9355H85.4439C85.3876 34.0245 85.3228 34.107 85.2505 34.1817C85.1592 34.2747 85.0579 34.356 84.9489 34.4238C84.8207 34.503 84.6845 34.5661 84.5429 34.6121C84.3747 34.6654 84.2 34.6912 84.0247 34.6886C83.7953 34.6908 83.5666 34.6616 83.3441 34.6017C83.1491 34.5505 82.9662 34.4568 82.8066 34.3266C82.6554 34.2005 82.5359 34.0363 82.4585 33.8486C82.3724 33.6288 82.3309 33.3918 82.3367 33.1535C82.3274 32.8784 82.4021 32.6075 82.5494 32.3818C82.6895 32.1771 82.8696 32.0077 83.0772 31.8852C83.2941 31.757 83.5283 31.6656 83.7714 31.6142C84.0028 31.5617 84.2386 31.534 84.4752 31.5314H84.9257C85.0546 31.5314 85.2048 31.5376 85.3762 31.5501C85.3992 31.2091 85.3118 30.8701 85.1287 30.5901C84.9637 30.3749 84.6679 30.2673 84.2412 30.2673C83.9967 30.2677 83.754 30.3132 83.5239 30.4018C83.2991 30.4839 83.0896 30.6079 82.9052 30.768L82.8626 30.0046ZM85.3762 32.2349C85.286 32.2349 85.1957 32.2349 85.1055 32.2349C85.0153 32.2349 84.925 32.2349 84.8348 32.2349C84.7201 32.2349 84.5725 32.2431 84.392 32.2597C84.212 32.2756 84.0347 32.3159 83.8642 32.3797C83.6992 32.4399 83.5482 32.5373 83.4214 32.6652C83.3568 32.7319 83.3062 32.8125 83.2728 32.9016C83.2395 32.9908 83.2242 33.0865 83.2281 33.1824C83.2259 33.3026 83.2539 33.4213 83.3093 33.5259C83.3583 33.6217 83.4239 33.7066 83.5026 33.7762C83.5849 33.8448 83.6779 33.8973 83.7772 33.9314C83.8732 33.9659 83.9737 33.9841 84.0749 33.9852C84.25 33.9987 84.4257 33.9725 84.5906 33.9083C84.7556 33.8441 84.906 33.7434 85.032 33.6128C85.2491 33.3635 85.3658 33.0327 85.3569 32.6921L85.3762 32.2349Z" fill="#949494"/>
<path d="M87.2812 33.7869L89.9321 30.3897H87.4108V29.6553H90.9201V30.4477L88.2673 33.8448H91.0188V34.5793H87.2812V33.7869Z" fill="#949494"/>
<path d="M93.0899 28.5573H92.1328V27.5227H93.0899V28.5573ZM92.187 29.658H93.0338V34.5784H92.187V29.658Z" fill="#949494"/>
<path d="M94.5429 29.6545H95.3647V30.4366H95.3821C95.5107 30.151 95.7233 29.9184 95.9873 29.7745C96.2652 29.6167 96.5756 29.5356 96.8902 29.5387C97.4858 29.5387 97.9214 29.7256 98.1973 30.0993C98.4731 30.4731 98.6117 30.991 98.613 31.6531V34.5765H97.7661V32.0296C97.7905 31.5874 97.7197 31.145 97.5592 30.7366C97.4824 30.5909 97.3696 30.4706 97.2332 30.3889C97.0968 30.3071 96.9421 30.2671 96.7858 30.2731C96.5688 30.2673 96.3537 30.3185 96.1594 30.4221C95.9843 30.5197 95.8342 30.6618 95.7224 30.8359C95.6008 31.0306 95.5148 31.2482 95.4691 31.4772C95.4126 31.7489 95.3853 32.0265 95.3879 32.3048V34.5806H94.5391L94.5429 29.6545Z" fill="#949494"/>
<path d="M103.543 34.3753L103.282 34.4767C103.192 34.5126 103.092 34.5464 102.981 34.5781C102.854 34.6139 102.724 34.6415 102.594 34.6609C102.428 34.6844 102.261 34.6955 102.093 34.694C101.732 34.703 101.372 34.6376 101.034 34.5015C100.751 34.3846 100.498 34.1999 100.293 33.9616C100.092 33.7189 99.943 33.4323 99.8562 33.1216C99.7563 32.7681 99.7074 32.4005 99.7112 32.0312C99.7071 31.6898 99.7588 31.3502 99.8639 31.0278C99.9595 30.7374 100.108 30.4702 100.301 30.2416C100.49 30.019 100.723 29.8426 100.981 29.7244C101.261 29.5987 101.562 29.5361 101.865 29.5403C102.198 29.5265 102.529 29.5974 102.832 29.7472C103.083 29.8814 103.297 30.0823 103.454 30.3306C103.619 30.5993 103.734 30.8991 103.793 31.214C103.864 31.5759 103.899 31.9449 103.897 32.3147H100.62C100.617 32.5434 100.659 32.7702 100.742 32.9809C100.82 33.1756 100.933 33.3515 101.076 33.4981C101.217 33.6424 101.383 33.7568 101.563 33.8354C101.747 33.9163 101.945 33.9571 102.144 33.9553C102.288 33.9545 102.432 33.9365 102.573 33.9016C102.713 33.8681 102.852 33.826 102.988 33.7754C103.106 33.7322 103.221 33.679 103.331 33.616C103.411 33.5708 103.488 33.5189 103.561 33.4609L103.543 34.3753ZM102.992 31.6444C102.993 31.4639 102.967 31.2844 102.915 31.1126C102.868 30.953 102.793 30.8043 102.695 30.674C102.597 30.5477 102.473 30.4472 102.333 30.3802C102.18 30.3078 102.013 30.2718 101.846 30.2747C101.66 30.2689 101.475 30.3122 101.308 30.4009C101.166 30.4804 101.04 30.5902 100.939 30.7237C100.84 30.8545 100.763 31.003 100.713 31.1623C100.662 31.3187 100.627 31.4802 100.608 31.6444H102.992Z" fill="#949494"/>
</svg>
